G04 FreePCB version 1.359*
G04 N:\work\HomeAutomation\pcb\bridge\CAM\bottom_silk.grb*
G04 bottom silk layer *
G04 Scale: 100 percent, Rotated: No, Reflected: No *
%FSLAX24Y24*%
%MOIN*%
%LN bottom silk *%
G04 Rounded Rectangle Macro, params: W/2, H/2, R *
%AMRNDREC*
21,1,$1+$1,$2+$2-$3-$3,0,0,0*
21,1,$1+$1-$3-$3,$2+$2,0,0,0*
1,1,$3+$3,$1-$3,$2-$3*
1,1,$3+$3,$3-$1,$2-$3*
1,1,$3+$3,$1-$3,$3-$2*
1,1,$3+$3,$3-$1,$3-$2*%
G04 Rectangular Thermal Macro, params: W/2, H/2, T/2 *
%AMRECTHERM*
$4=$3/2*
21,1,$1-$3,$2-$3,0-$1/2-$4,0-$2/2-$4,0*
21,1,$1-$3,$2-$3,0-$1/2-$4,$2/2+$4,0*
21,1,$1-$3,$2-$3,$1/2+$4,0-$2/2-$4,0*
21,1,$1-$3,$2-$3,$1/2+$4,$2/2+$4,0*%
%ADD10C,0.005000*%
%ADD11C,0.010000*%
%ADD12C,0.007000*%
G90*
G70D02*

G04 Step and Repeat for panelization *

G04 ----------------------- Draw board outline (positive)*
%LPD*%
G54D10*
G01X-11000Y16500D02*
G01X10000Y16500D01*
G04 end of side 1*
G01X10000Y2000D01*
G04 end of side 2*
G01X-11000Y2000D01*
G04 end of side 3*
G01X-11000Y16500D01*

G04 -------------- Draw Parts, Pads, Traces, Vias and Text (positive)*
%LPD*%
G04 Draw part PIC*
G04 Draw part MCP2551*
G04 Draw part MH7400*
G04 Draw part R14*
G04 Draw part R9*
G04 Draw part R15*
G04 draw part outline for part R15*
G54D11*
G01X-7200Y4700D02*
G01X-6800Y4700D01*
G01X-6800Y4700D02*
G01X-6800Y5300D01*
G01X-6800Y5300D02*
G01X-7200Y5300D01*
G01X-7200Y5300D02*
G01X-7200Y4700D01*
G04 draw reference designator for part R15*
G54D10*
G01X-7300Y4861D02*
G01X-7300Y5100D01*
G01X-7197Y4861D02*
G01X-7300Y4861D01*
G01X-7197Y4861D02*
G01X-7163Y4872D01*
G01X-7163Y4872D02*
G01X-7152Y4884D01*
G01X-7152Y4884D02*
G01X-7140Y4906D01*
G01X-7140Y4906D02*
G01X-7140Y4929D01*
G01X-7140Y4929D02*
G01X-7152Y4952D01*
G01X-7152Y4952D02*
G01X-7163Y4963D01*
G01X-7163Y4963D02*
G01X-7197Y4975D01*
G01X-7300Y4975D02*
G01X-7197Y4975D01*
G01X-7220Y4975D02*
G01X-7140Y5100D01*
G01X-7027Y4895D02*
G01X-7050Y4906D01*
G01X-6993Y4861D02*
G01X-7027Y4895D01*
G01X-6993Y4861D02*
G01X-6993Y5100D01*
G01X-6879Y4861D02*
G01X-6765Y4861D01*
G01X-6879Y4861D02*
G01X-6890Y4963D01*
G01X-6879Y4952D02*
G01X-6890Y4963D01*
G01X-6845Y4940D02*
G01X-6879Y4952D01*
G01X-6811Y4940D02*
G01X-6845Y4940D01*
G01X-6811Y4940D02*
G01X-6777Y4952D01*
G01X-6777Y4952D02*
G01X-6754Y4975D01*
G01X-6754Y4975D02*
G01X-6743Y5009D01*
G01X-6743Y5009D02*
G01X-6743Y5031D01*
G01X-6743Y5031D02*
G01X-6754Y5065D01*
G01X-6754Y5065D02*
G01X-6777Y5088D01*
G01X-6777Y5088D02*
G01X-6811Y5100D01*
G01X-6845Y5100D02*
G01X-6811Y5100D01*
G01X-6879Y5088D02*
G01X-6845Y5100D01*
G01X-6890Y5077D02*
G01X-6879Y5088D01*
G01X-6902Y5054D02*
G01X-6890Y5077D01*
G04 Draw part Z1*
G04 Draw part UART*
G04 Draw part BUS*
G04 Draw part F1*
G04 draw part outline for part F1*
G54D11*
G01X8700Y4000D02*
G01X7300Y4000D01*
G01X7300Y4000D02*
G01X7300Y7000D01*
G01X7300Y7000D02*
G01X8700Y7000D01*
G01X8700Y7000D02*
G01X8700Y4000D01*
G04 draw reference designator for part F1*
G54D12*
G01X9500Y5051D02*
G01X9023Y5051D01*
G01X9500Y5346D02*
G01X9500Y5051D01*
G01X9273Y5232D02*
G01X9273Y5051D01*
G01X9432Y5573D02*
G01X9409Y5528D01*
G01X9500Y5642D02*
G01X9432Y5573D01*
G01X9500Y5642D02*
G01X9023Y5642D01*
G04 Draw part PI*
G04 Draw part R20*
G04 Draw part R21*
G04 Draw part C1*
G04 Draw part R01*
G04 draw part outline for part R01*
G54D11*
G01X7800Y14700D02*
G01X8200Y14700D01*
G01X8200Y14700D02*
G01X8200Y15300D01*
G01X8200Y15300D02*
G01X7800Y15300D01*
G01X7800Y15300D02*
G01X7800Y14700D01*
G04 draw reference designator for part R01*
G54D10*
G01X7700Y14861D02*
G01X7700Y15100D01*
G01X7802Y14861D02*
G01X7700Y14861D01*
G01X7802Y14861D02*
G01X7836Y14872D01*
G01X7836Y14872D02*
G01X7847Y14884D01*
G01X7847Y14884D02*
G01X7859Y14906D01*
G01X7859Y14906D02*
G01X7859Y14929D01*
G01X7859Y14929D02*
G01X7847Y14952D01*
G01X7847Y14952D02*
G01X7836Y14963D01*
G01X7836Y14963D02*
G01X7802Y14975D01*
G01X7700Y14975D02*
G01X7802Y14975D01*
G01X7779Y14975D02*
G01X7859Y15100D01*
G01X8018Y14861D02*
G01X7984Y14872D01*
G01X7984Y14872D02*
G01X7961Y14906D01*
G01X7961Y14906D02*
G01X7950Y14963D01*
G01X7950Y14963D02*
G01X7950Y14997D01*
G01X7950Y14997D02*
G01X7961Y15054D01*
G01X7961Y15054D02*
G01X7984Y15088D01*
G01X7984Y15088D02*
G01X8018Y15100D01*
G01X8040Y15100D02*
G01X8018Y15100D01*
G01X8075Y15088D02*
G01X8040Y15100D01*
G01X8097Y15054D02*
G01X8075Y15088D01*
G01X8109Y14997D02*
G01X8097Y15054D01*
G01X8109Y14963D02*
G01X8109Y14997D01*
G01X8097Y14906D02*
G01X8109Y14963D01*
G01X8075Y14872D02*
G01X8097Y14906D01*
G01X8040Y14861D02*
G01X8075Y14872D01*
G01X8018Y14861D02*
G01X8040Y14861D01*
G01X8222Y14895D02*
G01X8200Y14906D01*
G01X8256Y14861D02*
G01X8222Y14895D01*
G01X8256Y14861D02*
G01X8256Y15100D01*
G04 Draw part C2*
G04 Draw part C3*
G04 Draw part R03*
G04 draw part outline for part R03*
G54D11*
G01X300Y8550D02*
G01X300Y8950D01*
G01X300Y8950D02*
G01X-300Y8950D01*
G01X-300Y8950D02*
G01X-300Y8550D01*
G01X-300Y8550D02*
G01X300Y8550D01*
G04 draw reference designator for part R03*
G54D10*
G01X138Y8450D02*
G01X-100Y8450D01*
G01X138Y8552D02*
G01X138Y8450D01*
G01X138Y8552D02*
G01X127Y8586D01*
G01X127Y8586D02*
G01X115Y8597D01*
G01X115Y8597D02*
G01X93Y8609D01*
G01X93Y8609D02*
G01X70Y8609D01*
G01X70Y8609D02*
G01X47Y8597D01*
G01X47Y8597D02*
G01X36Y8586D01*
G01X36Y8586D02*
G01X25Y8552D01*
G01X25Y8450D02*
G01X25Y8552D01*
G01X25Y8529D02*
G01X-100Y8609D01*
G01X138Y8768D02*
G01X127Y8734D01*
G01X127Y8734D02*
G01X93Y8711D01*
G01X93Y8711D02*
G01X36Y8700D01*
G01X36Y8700D02*
G01X2Y8700D01*
G01X2Y8700D02*
G01X-54Y8711D01*
G01X-54Y8711D02*
G01X-88Y8734D01*
G01X-88Y8734D02*
G01X-100Y8768D01*
G01X-100Y8790D02*
G01X-100Y8768D01*
G01X-88Y8825D02*
G01X-100Y8790D01*
G01X-54Y8847D02*
G01X-88Y8825D01*
G01X2Y8859D02*
G01X-54Y8847D01*
G01X36Y8859D02*
G01X2Y8859D01*
G01X93Y8847D02*
G01X36Y8859D01*
G01X127Y8825D02*
G01X93Y8847D01*
G01X138Y8790D02*
G01X127Y8825D01*
G01X138Y8768D02*
G01X138Y8790D01*
G01X138Y9097D02*
G01X138Y8972D01*
G01X138Y9097D02*
G01X47Y9029D01*
G01X47Y9063D02*
G01X47Y9029D01*
G01X47Y9063D02*
G01X36Y9086D01*
G01X36Y9086D02*
G01X25Y9097D01*
G01X25Y9097D02*
G01X-9Y9109D01*
G01X-9Y9109D02*
G01X-31Y9109D01*
G01X-31Y9109D02*
G01X-65Y9097D01*
G01X-65Y9097D02*
G01X-88Y9075D01*
G01X-88Y9075D02*
G01X-100Y9040D01*
G01X-100Y9006D02*
G01X-100Y9040D01*
G01X-88Y8972D02*
G01X-100Y9006D01*
G01X-77Y8961D02*
G01X-88Y8972D01*
G01X-54Y8950D02*
G01X-77Y8961D01*
G04 Draw part R05*
G04 Draw part J1*
G04 Draw part PWR*
G04 draw part outline for part PWR*
G54D11*
G01X8700Y7000D02*
G01X7300Y7000D01*
G01X7300Y7000D02*
G01X7300Y10000D01*
G01X7300Y10000D02*
G01X8700Y10000D01*
G01X8700Y10000D02*
G01X8700Y7000D01*
G04 draw reference designator for part PWR*
G54D12*
G01X9500Y8051D02*
G01X9023Y8051D01*
G01X9500Y8255D02*
G01X9500Y8051D01*
G01X9500Y8255D02*
G01X9478Y8323D01*
G01X9478Y8323D02*
G01X9455Y8346D01*
G01X9455Y8346D02*
G01X9409Y8369D01*
G01X9409Y8369D02*
G01X9341Y8369D01*
G01X9341Y8369D02*
G01X9296Y8346D01*
G01X9296Y8346D02*
G01X9273Y8323D01*
G01X9273Y8323D02*
G01X9250Y8255D01*
G01X9250Y8051D02*
G01X9250Y8255D01*
G01X9500Y8551D02*
G01X9023Y8664D01*
G01X9500Y8778D02*
G01X9023Y8664D01*
G01X9500Y8778D02*
G01X9023Y8892D01*
G01X9500Y9005D02*
G01X9023Y8892D01*
G01X9500Y9187D02*
G01X9023Y9187D01*
G01X9500Y9392D02*
G01X9500Y9187D01*
G01X9500Y9392D02*
G01X9478Y9460D01*
G01X9478Y9460D02*
G01X9455Y9482D01*
G01X9455Y9482D02*
G01X9409Y9505D01*
G01X9409Y9505D02*
G01X9364Y9505D01*
G01X9364Y9505D02*
G01X9319Y9482D01*
G01X9319Y9482D02*
G01X9296Y9460D01*
G01X9296Y9460D02*
G01X9273Y9392D01*
G01X9273Y9187D02*
G01X9273Y9392D01*
G01X9273Y9346D02*
G01X9023Y9505D01*

G04 Draw traces*

G04 Draw Text*
M00*
M02*
