G04 FreePCB version 1.359*
G04 N:\work\HomeAutomation\pcb\bridge\CAM\bottom_solder_mask.grb*
G04 bottom solder mask layer *
G04 Scale: 100 percent, Rotated: No, Reflected: No *
%FSLAX24Y24*%
%MOIN*%
%LN bottom solder mask *%
G04 Rounded Rectangle Macro, params: W/2, H/2, R *
%AMRNDREC*
21,1,$1+$1,$2+$2-$3-$3,0,0,0*
21,1,$1+$1-$3-$3,$2+$2,0,0,0*
1,1,$3+$3,$1-$3,$2-$3*
1,1,$3+$3,$3-$1,$2-$3*
1,1,$3+$3,$1-$3,$3-$2*
1,1,$3+$3,$3-$1,$3-$2*%
G04 Rectangular Thermal Macro, params: W/2, H/2, T/2 *
%AMRECTHERM*
$4=$3/2*
21,1,$1-$3,$2-$3,0-$1/2-$4,0-$2/2-$4,0*
21,1,$1-$3,$2-$3,0-$1/2-$4,$2/2+$4,0*
21,1,$1-$3,$2-$3,$1/2+$4,0-$2/2-$4,0*
21,1,$1-$3,$2-$3,$1/2+$4,$2/2+$4,0*%
%ADD10C,0.005000*%
%ADD11R,0.076000X0.116000*%
%ADD12O,0.076000X0.166000*%
%ADD13R,0.166000X0.076000*%
%ADD14O,0.166000X0.076000*%
%ADD15R,0.076000X0.136000*%
%ADD16O,0.096000X0.116000*%
%ADD17C,0.091000*%
%ADD18R,0.066000X0.066000*%
%ADD19R,0.111000X0.076000*%
%ADD20O,0.111000X0.076000*%
%ADD21R,0.076000X0.111000*%
%ADD22O,0.076000X0.111000*%
%ADD23R,0.141000X0.116000*%
%ADD24O,0.116000X0.096000*%
%ADD25C,0.096000*%
%ADD26O,0.136000X0.076000*%
%ADD27C,0.016000*%
G90*
G70D02*

G04 Step and Repeat for panelization *

G04 ----------------------- Draw board outline (positive)*
%LPD*%
G54D10*
G01X-11000Y16500D02*
G01X10000Y16500D01*
G04 end of side 1*
G01X10000Y2000D01*
G04 end of side 2*
G01X-11000Y2000D01*
G04 end of side 3*
G01X-11000Y16500D01*

G04 -------------- Draw Parts, Pads, Traces, Vias and Text (positive)*
%LPD*%
G04 Draw part PIC*
G54D11*
G01X7000Y15000D03*
G54D12*
G01X6000Y15000D03*
G01X5000Y15000D03*
G01X4000Y15000D03*
G01X3000Y15000D03*
G01X2000Y15000D03*
G01X1000Y15000D03*
G01X0Y15000D03*
G01X-1000Y15000D03*
G01X-2000Y15000D03*
G01X-3000Y15000D03*
G01X-4000Y15000D03*
G01X-5000Y15000D03*
G01X-6000Y15000D03*
G01X-6000Y12000D03*
G01X-5000Y12000D03*
G01X-4000Y12000D03*
G01X-3000Y12000D03*
G01X-2000Y12000D03*
G01X-1000Y12000D03*
G01X0Y12000D03*
G01X1000Y12000D03*
G01X2000Y12000D03*
G01X3000Y12000D03*
G01X4000Y12000D03*
G01X5000Y12000D03*
G01X6000Y12000D03*
G01X7000Y12000D03*
G04 Draw part MCP2551*
G54D13*
G01X3000Y10000D03*
G54D14*
G01X3000Y9000D03*
G01X3000Y8000D03*
G01X3000Y7000D03*
G01X6000Y7000D03*
G01X6000Y8000D03*
G01X6000Y9000D03*
G01X6000Y10000D03*
G04 Draw part MH7400*
G54D15*
G01X1000Y7000D03*
G54D12*
G01X0Y7000D03*
G01X-1000Y7000D03*
G01X-2000Y7000D03*
G01X-3000Y7000D03*
G01X-4000Y7000D03*
G01X-5000Y7000D03*
G01X-5000Y4000D03*
G01X-4000Y4000D03*
G01X-3000Y4000D03*
G01X-2000Y4000D03*
G01X-1000Y4000D03*
G01X0Y4000D03*
G01X1000Y4000D03*
G04 Draw part R14*
G54D16*
G01X-7000Y6000D03*
G01X-7000Y3000D03*
G04 Draw part R9*
G54D17*
G01X9000Y12500D03*
G01X9000Y4500D03*
G04 Draw part R15*
G54D18*
G01X-7500Y5000D03*
G01X-6500Y5000D03*
G04 Draw part Z1*
G54D17*
G01X-6000Y7000D03*
G01X-6000Y4000D03*
G04 Draw part UART*
G54D19*
G01X-8500Y3500D03*
G54D20*
G01X-9500Y3500D03*
G01X-8500Y4500D03*
G01X-9500Y4500D03*
G01X-8500Y5500D03*
G01X-9500Y5500D03*
G01X-8500Y6500D03*
G01X-9500Y6500D03*
G01X-8500Y7500D03*
G01X-9500Y7500D03*
G04 Draw part BUS*
G54D21*
G01X6000Y5000D03*
G54D22*
G01X6000Y4000D03*
G01X5000Y5000D03*
G01X5000Y4000D03*
G01X4000Y5000D03*
G01X4000Y4000D03*
G04 Draw part F1*
G54D23*
G01X8000Y4600D03*
G01X8000Y6400D03*
G04 Draw part PI*
G54D19*
G01X-8500Y9500D03*
G54D20*
G01X-9500Y9500D03*
G01X-8500Y10500D03*
G01X-9500Y10500D03*
G01X-8500Y11500D03*
G01X-9500Y11500D03*
G01X-8500Y12500D03*
G01X-9500Y12500D03*
G01X-8500Y13500D03*
G01X-9500Y13500D03*
G04 Draw part R20*
G54D24*
G01X-7000Y8500D03*
G01X-4000Y8500D03*
G04 Draw part R21*
G54D16*
G01X-7000Y13750D03*
G01X-7000Y10750D03*
G04 Draw part C1*
G54D25*
G01X8000Y14000D03*
G01X8000Y12000D03*
G04 Draw part R01*
G54D18*
G01X7500Y15000D03*
G01X8500Y15000D03*
G04 Draw part C2*
G54D25*
G01X-2000Y10500D03*
G01X0Y10500D03*
G04 Draw part C3*
G04 Draw part R03*
G54D18*
G01X0Y8250D03*
G01X0Y9250D03*
G04 Draw part R05*
G54D24*
G01X-7000Y9500D03*
G01X-4000Y9500D03*
G04 Draw part J1*
G54D26*
G01X2500Y4000D03*
G01X2500Y5000D03*
G04 Draw part PWR*
G54D23*
G01X8000Y7600D03*
G01X8000Y9400D03*

G04 Draw traces*

G04 Draw Text*
G54D27*

G04 Draw solder mask cutouts*
M00*
M02*
