;Holesize 1 =   28.0 PLATED MILS
M48
INCH,00.0000
T01C0.028
%
G05
G90
T01
X007000Y015000
X006000Y015000
X005000Y015000
X004000Y015000
X003000Y015000
X002000Y015000
X001000Y015000
X000000Y015000
X-001000Y015000
X-002000Y015000
X-003000Y015000
X-004000Y015000
X-005000Y015000
X-006000Y015000
X-006000Y012000
X-005000Y012000
X-004000Y012000
X-003000Y012000
X-002000Y012000
X-001000Y012000
X000000Y012000
X001000Y012000
X002000Y012000
X003000Y012000
X004000Y012000
X005000Y012000
X006000Y012000
X007000Y012000
X003000Y010000
X003000Y009000
X003000Y008000
X003000Y007000
X006000Y007000
X006000Y008000
X006000Y009000
X006000Y010000
X001000Y007000
X000000Y007000
X-001000Y007000
X-002000Y007000
X-003000Y007000
X-004000Y007000
X-005000Y007000
X-005000Y004000
X-004000Y004000
X-003000Y004000
X-002000Y004000
X-001000Y004000
X000000Y004000
X001000Y004000
X-007000Y006000
X-007000Y003000
X009000Y012500
X009000Y004500
X-006000Y007000
X-006000Y004000
X-008500Y003500
X-009500Y003500
X-008500Y004500
X-009500Y004500
X-008500Y005500
X-009500Y005500
X-008500Y006500
X-009500Y006500
X-008500Y007500
X-009500Y007500
X006000Y005000
X006000Y004000
X005000Y005000
X005000Y004000
X004000Y005000
X004000Y004000
X-008500Y009500
X-009500Y009500
X-008500Y010500
X-009500Y010500
X-008500Y011500
X-009500Y011500
X-008500Y012500
X-009500Y012500
X-008500Y013500
X-009500Y013500
X-007000Y008500
X-004000Y008500
X-007000Y013750
X-007000Y010750
X008000Y014000
X008000Y012000
X-002000Y010500
X000000Y010500
X001000Y010000
X001000Y009000
X-007000Y009500
X-004000Y009500
X002500Y004000
X002500Y005000
M30
