G04 FreePCB version 1.359*
G04 N:\work\HomeAutomation\pcb\bridge\CAM\top_silk.grb*
G04 top silk layer *
G04 Scale: 100 percent, Rotated: No, Reflected: No *
%FSLAX24Y24*%
%MOIN*%
%LN top silk *%
G04 Rounded Rectangle Macro, params: W/2, H/2, R *
%AMRNDREC*
21,1,$1+$1,$2+$2-$3-$3,0,0,0*
21,1,$1+$1-$3-$3,$2+$2,0,0,0*
1,1,$3+$3,$1-$3,$2-$3*
1,1,$3+$3,$3-$1,$2-$3*
1,1,$3+$3,$1-$3,$3-$2*
1,1,$3+$3,$3-$1,$3-$2*%
G04 Rectangular Thermal Macro, params: W/2, H/2, T/2 *
%AMRECTHERM*
$4=$3/2*
21,1,$1-$3,$2-$3,0-$1/2-$4,0-$2/2-$4,0*
21,1,$1-$3,$2-$3,0-$1/2-$4,$2/2+$4,0*
21,1,$1-$3,$2-$3,$1/2+$4,0-$2/2-$4,0*
21,1,$1-$3,$2-$3,$1/2+$4,$2/2+$4,0*%
%ADD10C,0.005000*%
%ADD11C,0.007000*%
%ADD12C,0.010000*%
G90*
G70D02*

G04 Step and Repeat for panelization *

G04 ----------------------- Draw board outline (positive)*
%LPD*%
G54D10*
G01X-11000Y16500D02*
G01X10000Y16500D01*
G04 end of side 1*
G01X10000Y2000D01*
G04 end of side 2*
G01X-11000Y2000D01*
G04 end of side 3*
G01X-11000Y16500D01*

G04 -------------- Draw Parts, Pads, Traces, Vias and Text (positive)*
%LPD*%
G04 Draw part PIC*
G04 draw part outline for part PIC*
G54D11*
G01X7500Y14500D02*
G01X-6500Y14500D01*
G01X-6500Y14500D02*
G01X-6500Y12500D01*
G01X-6500Y12500D02*
G01X7500Y12500D01*
G01X7500Y12500D02*
G01X7500Y14500D01*
G01X7500Y14000D02*
G01X7000Y14000D01*
G01X7000Y14000D02*
G01X7000Y13000D01*
G01X7000Y13000D02*
G01X7500Y13000D01*
G01X7500Y13000D02*
G01X7500Y14000D01*
G04 draw reference designator for part PIC*
G01X-5522Y14000D02*
G01X-6000Y14000D01*
G01X-5522Y13795D02*
G01X-5522Y14000D01*
G01X-5522Y13795D02*
G01X-5545Y13727D01*
G01X-5545Y13727D02*
G01X-5568Y13704D01*
G01X-5568Y13704D02*
G01X-5613Y13681D01*
G01X-5613Y13681D02*
G01X-5681Y13681D01*
G01X-5681Y13681D02*
G01X-5727Y13704D01*
G01X-5727Y13704D02*
G01X-5750Y13727D01*
G01X-5750Y13727D02*
G01X-5772Y13795D01*
G01X-5772Y14000D02*
G01X-5772Y13795D01*
G01X-5522Y13500D02*
G01X-6000Y13500D01*
G01X-5590Y13000D02*
G01X-5636Y12977D01*
G01X-5545Y13045D02*
G01X-5590Y13000D01*
G01X-5522Y13090D02*
G01X-5545Y13045D01*
G01X-5522Y13181D02*
G01X-5522Y13090D01*
G01X-5522Y13181D02*
G01X-5545Y13227D01*
G01X-5545Y13227D02*
G01X-5590Y13272D01*
G01X-5590Y13272D02*
G01X-5636Y13295D01*
G01X-5636Y13295D02*
G01X-5704Y13318D01*
G01X-5704Y13318D02*
G01X-5818Y13318D01*
G01X-5818Y13318D02*
G01X-5886Y13295D01*
G01X-5886Y13295D02*
G01X-5931Y13272D01*
G01X-5931Y13272D02*
G01X-5977Y13227D01*
G01X-5977Y13227D02*
G01X-6000Y13181D01*
G01X-6000Y13090D02*
G01X-6000Y13181D01*
G01X-5977Y13045D02*
G01X-6000Y13090D01*
G01X-5931Y13000D02*
G01X-5977Y13045D01*
G01X-5886Y12977D02*
G01X-5931Y13000D01*
G04 Draw part MCP2551*
G04 draw part outline for part MCP2551*
G01X3500Y10500D02*
G01X3500Y6500D01*
G01X3500Y6500D02*
G01X5500Y6500D01*
G01X5500Y6500D02*
G01X5500Y10500D01*
G01X5500Y10500D02*
G01X3500Y10500D01*
G01X4000Y10500D02*
G01X4000Y10000D01*
G01X4000Y10000D02*
G01X5000Y10000D01*
G01X5000Y10000D02*
G01X5000Y10500D01*
G01X5000Y10500D02*
G01X4000Y10500D01*
G04 draw reference designator for part MCP2551*
G01X3000Y7477D02*
G01X3000Y7000D01*
G01X3000Y7477D02*
G01X3181Y7000D01*
G01X3363Y7477D02*
G01X3181Y7000D01*
G01X3363Y7477D02*
G01X3363Y7000D01*
G01X3863Y7409D02*
G01X3886Y7363D01*
G01X3818Y7454D02*
G01X3863Y7409D01*
G01X3772Y7477D02*
G01X3818Y7454D01*
G01X3681Y7477D02*
G01X3772Y7477D01*
G01X3681Y7477D02*
G01X3636Y7454D01*
G01X3636Y7454D02*
G01X3590Y7409D01*
G01X3590Y7409D02*
G01X3568Y7363D01*
G01X3568Y7363D02*
G01X3545Y7295D01*
G01X3545Y7295D02*
G01X3545Y7181D01*
G01X3545Y7181D02*
G01X3568Y7113D01*
G01X3568Y7113D02*
G01X3590Y7068D01*
G01X3590Y7068D02*
G01X3636Y7022D01*
G01X3636Y7022D02*
G01X3681Y7000D01*
G01X3772Y7000D02*
G01X3681Y7000D01*
G01X3818Y7022D02*
G01X3772Y7000D01*
G01X3863Y7068D02*
G01X3818Y7022D01*
G01X3886Y7113D02*
G01X3863Y7068D01*
G01X4068Y7477D02*
G01X4068Y7000D01*
G01X4272Y7477D02*
G01X4068Y7477D01*
G01X4272Y7477D02*
G01X4340Y7454D01*
G01X4340Y7454D02*
G01X4363Y7431D01*
G01X4363Y7431D02*
G01X4386Y7386D01*
G01X4386Y7386D02*
G01X4386Y7318D01*
G01X4386Y7318D02*
G01X4363Y7272D01*
G01X4363Y7272D02*
G01X4340Y7250D01*
G01X4340Y7250D02*
G01X4272Y7227D01*
G01X4068Y7227D02*
G01X4272Y7227D01*
G01X4590Y7386D02*
G01X4590Y7363D01*
G01X4613Y7431D02*
G01X4590Y7386D01*
G01X4636Y7454D02*
G01X4613Y7431D01*
G01X4681Y7477D02*
G01X4636Y7454D01*
G01X4772Y7477D02*
G01X4681Y7477D01*
G01X4772Y7477D02*
G01X4818Y7454D01*
G01X4818Y7454D02*
G01X4840Y7431D01*
G01X4840Y7431D02*
G01X4863Y7386D01*
G01X4863Y7386D02*
G01X4863Y7340D01*
G01X4863Y7340D02*
G01X4840Y7295D01*
G01X4840Y7295D02*
G01X4795Y7227D01*
G01X4795Y7227D02*
G01X4568Y7000D01*
G01X4886Y7000D02*
G01X4568Y7000D01*
G01X5113Y7477D02*
G01X5340Y7477D01*
G01X5113Y7477D02*
G01X5090Y7272D01*
G01X5113Y7295D02*
G01X5090Y7272D01*
G01X5181Y7318D02*
G01X5113Y7295D01*
G01X5250Y7318D02*
G01X5181Y7318D01*
G01X5250Y7318D02*
G01X5318Y7295D01*
G01X5318Y7295D02*
G01X5363Y7250D01*
G01X5363Y7250D02*
G01X5386Y7181D01*
G01X5386Y7181D02*
G01X5386Y7136D01*
G01X5386Y7136D02*
G01X5363Y7068D01*
G01X5363Y7068D02*
G01X5318Y7022D01*
G01X5318Y7022D02*
G01X5250Y7000D01*
G01X5181Y7000D02*
G01X5250Y7000D01*
G01X5113Y7022D02*
G01X5181Y7000D01*
G01X5090Y7045D02*
G01X5113Y7022D01*
G01X5068Y7090D02*
G01X5090Y7045D01*
G01X5613Y7477D02*
G01X5840Y7477D01*
G01X5613Y7477D02*
G01X5590Y7272D01*
G01X5613Y7295D02*
G01X5590Y7272D01*
G01X5681Y7318D02*
G01X5613Y7295D01*
G01X5750Y7318D02*
G01X5681Y7318D01*
G01X5750Y7318D02*
G01X5818Y7295D01*
G01X5818Y7295D02*
G01X5863Y7250D01*
G01X5863Y7250D02*
G01X5886Y7181D01*
G01X5886Y7181D02*
G01X5886Y7136D01*
G01X5886Y7136D02*
G01X5863Y7068D01*
G01X5863Y7068D02*
G01X5818Y7022D01*
G01X5818Y7022D02*
G01X5750Y7000D01*
G01X5681Y7000D02*
G01X5750Y7000D01*
G01X5613Y7022D02*
G01X5681Y7000D01*
G01X5590Y7045D02*
G01X5613Y7022D01*
G01X5568Y7090D02*
G01X5590Y7045D01*
G01X6113Y7409D02*
G01X6068Y7386D01*
G01X6181Y7477D02*
G01X6113Y7409D01*
G01X6181Y7477D02*
G01X6181Y7000D01*
G04 Draw part MH7400*
G04 draw part outline for part MH7400*
G01X1500Y6500D02*
G01X-5500Y6500D01*
G01X-5500Y6500D02*
G01X-5500Y4500D01*
G01X-5500Y4500D02*
G01X1500Y4500D01*
G01X1500Y4500D02*
G01X1500Y6500D01*
G01X1500Y6000D02*
G01X1000Y6000D01*
G01X1000Y6000D02*
G01X1000Y5000D01*
G01X1000Y5000D02*
G01X1500Y5000D01*
G01X1500Y5000D02*
G01X1500Y6000D01*
G04 draw reference designator for part MH7400*
G01X2477Y7000D02*
G01X2000Y7000D01*
G01X2477Y7000D02*
G01X2000Y6818D01*
G01X2477Y6636D02*
G01X2000Y6818D01*
G01X2477Y6636D02*
G01X2000Y6636D01*
G01X2477Y6454D02*
G01X2000Y6454D01*
G01X2477Y6136D02*
G01X2000Y6136D01*
G01X2250Y6136D02*
G01X2250Y6454D01*
G01X2477Y5636D02*
G01X2000Y5863D01*
G01X2477Y5636D02*
G01X2477Y5954D01*
G01X2477Y5227D02*
G01X2159Y5454D01*
G01X2159Y5113D02*
G01X2159Y5454D01*
G01X2477Y5227D02*
G01X2000Y5227D01*
G01X2477Y4795D02*
G01X2454Y4863D01*
G01X2454Y4863D02*
G01X2386Y4909D01*
G01X2386Y4909D02*
G01X2272Y4931D01*
G01X2272Y4931D02*
G01X2204Y4931D01*
G01X2204Y4931D02*
G01X2090Y4909D01*
G01X2090Y4909D02*
G01X2022Y4863D01*
G01X2022Y4863D02*
G01X2000Y4795D01*
G01X2000Y4750D02*
G01X2000Y4795D01*
G01X2022Y4681D02*
G01X2000Y4750D01*
G01X2090Y4636D02*
G01X2022Y4681D01*
G01X2204Y4613D02*
G01X2090Y4636D01*
G01X2272Y4613D02*
G01X2204Y4613D01*
G01X2386Y4636D02*
G01X2272Y4613D01*
G01X2454Y4681D02*
G01X2386Y4636D01*
G01X2477Y4750D02*
G01X2454Y4681D01*
G01X2477Y4795D02*
G01X2477Y4750D01*
G01X2477Y4295D02*
G01X2454Y4363D01*
G01X2454Y4363D02*
G01X2386Y4409D01*
G01X2386Y4409D02*
G01X2272Y4431D01*
G01X2272Y4431D02*
G01X2204Y4431D01*
G01X2204Y4431D02*
G01X2090Y4409D01*
G01X2090Y4409D02*
G01X2022Y4363D01*
G01X2022Y4363D02*
G01X2000Y4295D01*
G01X2000Y4250D02*
G01X2000Y4295D01*
G01X2022Y4181D02*
G01X2000Y4250D01*
G01X2090Y4136D02*
G01X2022Y4181D01*
G01X2204Y4113D02*
G01X2090Y4136D01*
G01X2272Y4113D02*
G01X2204Y4113D01*
G01X2386Y4136D02*
G01X2272Y4113D01*
G01X2454Y4181D02*
G01X2386Y4136D01*
G01X2477Y4250D02*
G01X2454Y4181D01*
G01X2477Y4295D02*
G01X2477Y4250D01*
G04 Draw part R14*
G04 draw part outline for part R14*
G01X-6700Y5600D02*
G01X-6700Y3400D01*
G01X-6700Y3400D02*
G01X-7300Y3400D01*
G01X-7300Y3400D02*
G01X-7300Y5600D01*
G01X-7300Y5600D02*
G01X-6700Y5600D01*
G04 draw reference designator for part R14*
G54D10*
G01X-6861Y5000D02*
G01X-7100Y5000D01*
G01X-6861Y4897D02*
G01X-6861Y5000D01*
G01X-6861Y4897D02*
G01X-6872Y4863D01*
G01X-6872Y4863D02*
G01X-6884Y4852D01*
G01X-6884Y4852D02*
G01X-6906Y4840D01*
G01X-6906Y4840D02*
G01X-6929Y4840D01*
G01X-6929Y4840D02*
G01X-6952Y4852D01*
G01X-6952Y4852D02*
G01X-6963Y4863D01*
G01X-6963Y4863D02*
G01X-6975Y4897D01*
G01X-6975Y5000D02*
G01X-6975Y4897D01*
G01X-6975Y4920D02*
G01X-7100Y4840D01*
G01X-6895Y4727D02*
G01X-6906Y4750D01*
G01X-6861Y4693D02*
G01X-6895Y4727D01*
G01X-6861Y4693D02*
G01X-7100Y4693D01*
G01X-6861Y4488D02*
G01X-7020Y4602D01*
G01X-7020Y4431D02*
G01X-7020Y4602D01*
G01X-6861Y4488D02*
G01X-7100Y4488D01*
G04 Draw part R9*
G04 draw part outline for part R9*
G54D11*
G01X9300Y11600D02*
G01X9300Y9500D01*
G01X9300Y9500D02*
G01X8700Y9500D01*
G01X8700Y9500D02*
G01X8700Y11600D01*
G01X8700Y11600D02*
G01X9300Y11600D01*
G04 draw reference designator for part R9*
G54D10*
G01X9138Y12300D02*
G01X8900Y12300D01*
G01X9138Y12197D02*
G01X9138Y12300D01*
G01X9138Y12197D02*
G01X9127Y12163D01*
G01X9127Y12163D02*
G01X9115Y12152D01*
G01X9115Y12152D02*
G01X9093Y12140D01*
G01X9093Y12140D02*
G01X9070Y12140D01*
G01X9070Y12140D02*
G01X9047Y12152D01*
G01X9047Y12152D02*
G01X9036Y12163D01*
G01X9036Y12163D02*
G01X9025Y12197D01*
G01X9025Y12300D02*
G01X9025Y12197D01*
G01X9025Y12220D02*
G01X8900Y12140D01*
G01X9059Y11902D02*
G01X9025Y11913D01*
G01X9025Y11913D02*
G01X9002Y11936D01*
G01X9002Y11936D02*
G01X8990Y11970D01*
G01X8990Y11981D02*
G01X8990Y11970D01*
G01X9002Y12015D02*
G01X8990Y11981D01*
G01X9025Y12038D02*
G01X9002Y12015D01*
G01X9059Y12050D02*
G01X9025Y12038D01*
G01X9070Y12050D02*
G01X9059Y12050D01*
G01X9104Y12038D02*
G01X9070Y12050D01*
G01X9127Y12015D02*
G01X9104Y12038D01*
G01X9138Y11981D02*
G01X9127Y12015D01*
G01X9138Y11970D02*
G01X9138Y11981D01*
G01X9138Y11970D02*
G01X9127Y11936D01*
G01X9127Y11936D02*
G01X9104Y11913D01*
G01X9104Y11913D02*
G01X9059Y11902D01*
G01X9059Y11902D02*
G01X9002Y11902D01*
G01X9002Y11902D02*
G01X8945Y11913D01*
G01X8945Y11913D02*
G01X8911Y11936D01*
G01X8911Y11936D02*
G01X8900Y11970D01*
G01X8900Y11993D02*
G01X8900Y11970D01*
G01X8911Y12027D02*
G01X8900Y11993D01*
G01X8934Y12038D02*
G01X8911Y12027D01*
G04 draw value for part R9*
G01X8604Y12277D02*
G01X8593Y12300D01*
G01X8638Y12243D02*
G01X8604Y12277D01*
G01X8638Y12243D02*
G01X8400Y12243D01*
G01X8638Y12084D02*
G01X8627Y12118D01*
G01X8627Y12118D02*
G01X8593Y12140D01*
G01X8593Y12140D02*
G01X8536Y12152D01*
G01X8536Y12152D02*
G01X8502Y12152D01*
G01X8502Y12152D02*
G01X8445Y12140D01*
G01X8445Y12140D02*
G01X8411Y12118D01*
G01X8411Y12118D02*
G01X8400Y12084D01*
G01X8400Y12061D02*
G01X8400Y12084D01*
G01X8411Y12027D02*
G01X8400Y12061D01*
G01X8445Y12004D02*
G01X8411Y12027D01*
G01X8502Y11993D02*
G01X8445Y12004D01*
G01X8536Y11993D02*
G01X8502Y11993D01*
G01X8593Y12004D02*
G01X8536Y11993D01*
G01X8627Y12027D02*
G01X8593Y12004D01*
G01X8638Y12061D02*
G01X8627Y12027D01*
G01X8638Y12084D02*
G01X8638Y12061D01*
G01X8638Y11902D02*
G01X8400Y11902D01*
G01X8638Y11743D02*
G01X8479Y11902D01*
G01X8536Y11845D02*
G01X8400Y11743D01*
G04 Draw part R15*
G04 Draw part Z1*
G04 draw part outline for part Z1*
G54D11*
G01X-5600Y6400D02*
G01X-5600Y4600D01*
G01X-5600Y4600D02*
G01X-6400Y4600D01*
G01X-6400Y4600D02*
G01X-6400Y6400D01*
G01X-6400Y6400D02*
G01X-5600Y6400D01*
G01X-5600Y4800D02*
G01X-6400Y4800D01*
G04 draw reference designator for part Z1*
G54D10*
G01X-5818Y5945D02*
G01X-6200Y6200D01*
G01X-5818Y5945D02*
G01X-5818Y6200D01*
G01X-6200Y5945D02*
G01X-6200Y6200D01*
G01X-5872Y5763D02*
G01X-5890Y5800D01*
G01X-5818Y5709D02*
G01X-5872Y5763D01*
G01X-5818Y5709D02*
G01X-6200Y5709D01*
G04 Draw part UART*
G04 draw part outline for part UART*
G04 draw reference designator for part UART*
G54D11*
G01X-10577Y5500D02*
G01X-10236Y5500D01*
G01X-10236Y5500D02*
G01X-10168Y5522D01*
G01X-10168Y5522D02*
G01X-10122Y5568D01*
G01X-10122Y5568D02*
G01X-10100Y5636D01*
G01X-10100Y5681D02*
G01X-10100Y5636D01*
G01X-10122Y5750D02*
G01X-10100Y5681D01*
G01X-10168Y5795D02*
G01X-10122Y5750D01*
G01X-10236Y5818D02*
G01X-10168Y5795D01*
G01X-10577Y5818D02*
G01X-10236Y5818D01*
G01X-10577Y6181D02*
G01X-10100Y6000D01*
G01X-10577Y6181D02*
G01X-10100Y6363D01*
G01X-10259Y6295D02*
G01X-10259Y6068D01*
G01X-10577Y6545D02*
G01X-10100Y6545D01*
G01X-10577Y6750D02*
G01X-10577Y6545D01*
G01X-10577Y6750D02*
G01X-10554Y6818D01*
G01X-10554Y6818D02*
G01X-10531Y6840D01*
G01X-10531Y6840D02*
G01X-10486Y6863D01*
G01X-10486Y6863D02*
G01X-10440Y6863D01*
G01X-10440Y6863D02*
G01X-10395Y6840D01*
G01X-10395Y6840D02*
G01X-10372Y6818D01*
G01X-10372Y6818D02*
G01X-10350Y6750D01*
G01X-10350Y6545D02*
G01X-10350Y6750D01*
G01X-10350Y6704D02*
G01X-10100Y6863D01*
G01X-10577Y7204D02*
G01X-10100Y7204D01*
G01X-10577Y7363D02*
G01X-10577Y7045D01*
G04 Draw part BUS*
G04 draw part outline for part BUS*
G04 draw reference designator for part BUS*
G01X6000Y2522D02*
G01X6000Y3000D01*
G01X5795Y2522D02*
G01X6000Y2522D01*
G01X5795Y2522D02*
G01X5727Y2545D01*
G01X5727Y2545D02*
G01X5704Y2568D01*
G01X5704Y2568D02*
G01X5681Y2613D01*
G01X5681Y2613D02*
G01X5681Y2659D01*
G01X5681Y2659D02*
G01X5704Y2704D01*
G01X5704Y2704D02*
G01X5727Y2727D01*
G01X5727Y2727D02*
G01X5795Y2750D01*
G01X5795Y2750D02*
G01X6000Y2750D01*
G01X5795Y2750D02*
G01X5727Y2772D01*
G01X5727Y2772D02*
G01X5704Y2795D01*
G01X5704Y2795D02*
G01X5681Y2840D01*
G01X5681Y2840D02*
G01X5681Y2909D01*
G01X5681Y2909D02*
G01X5704Y2954D01*
G01X5704Y2954D02*
G01X5727Y2977D01*
G01X5727Y2977D02*
G01X5795Y3000D01*
G01X6000Y3000D02*
G01X5795Y3000D01*
G01X5500Y2522D02*
G01X5500Y2863D01*
G01X5500Y2863D02*
G01X5477Y2931D01*
G01X5477Y2931D02*
G01X5431Y2977D01*
G01X5431Y2977D02*
G01X5363Y3000D01*
G01X5318Y3000D02*
G01X5363Y3000D01*
G01X5250Y2977D02*
G01X5318Y3000D01*
G01X5204Y2931D02*
G01X5250Y2977D01*
G01X5181Y2863D02*
G01X5204Y2931D01*
G01X5181Y2522D02*
G01X5181Y2863D01*
G01X4727Y2545D02*
G01X4681Y2590D01*
G01X4795Y2522D02*
G01X4727Y2545D01*
G01X4886Y2522D02*
G01X4795Y2522D01*
G01X4886Y2522D02*
G01X4954Y2545D01*
G01X4954Y2545D02*
G01X5000Y2590D01*
G01X5000Y2590D02*
G01X5000Y2636D01*
G01X5000Y2636D02*
G01X4977Y2681D01*
G01X4977Y2681D02*
G01X4954Y2704D01*
G01X4954Y2704D02*
G01X4909Y2727D01*
G01X4909Y2727D02*
G01X4772Y2772D01*
G01X4772Y2772D02*
G01X4727Y2795D01*
G01X4727Y2795D02*
G01X4704Y2818D01*
G01X4704Y2818D02*
G01X4681Y2863D01*
G01X4681Y2863D02*
G01X4681Y2931D01*
G01X4681Y2931D02*
G01X4727Y2977D01*
G01X4727Y2977D02*
G01X4795Y3000D01*
G01X4886Y3000D02*
G01X4795Y3000D01*
G01X4954Y2977D02*
G01X4886Y3000D01*
G01X5000Y2931D02*
G01X4954Y2977D01*
G04 Draw part F1*
G04 Draw part PI*
G04 draw part outline for part PI*
G04 draw reference designator for part PI*
G01X-10577Y11500D02*
G01X-10100Y11500D01*
G01X-10577Y11704D02*
G01X-10577Y11500D01*
G01X-10577Y11704D02*
G01X-10554Y11772D01*
G01X-10554Y11772D02*
G01X-10531Y11795D01*
G01X-10531Y11795D02*
G01X-10486Y11818D01*
G01X-10486Y11818D02*
G01X-10418Y11818D01*
G01X-10418Y11818D02*
G01X-10372Y11795D01*
G01X-10372Y11795D02*
G01X-10350Y11772D01*
G01X-10350Y11772D02*
G01X-10327Y11704D01*
G01X-10327Y11500D02*
G01X-10327Y11704D01*
G01X-10577Y12000D02*
G01X-10100Y12000D01*
G04 Draw part R20*
G04 draw part outline for part R20*
G01X-6600Y8800D02*
G01X-4400Y8800D01*
G01X-4400Y8800D02*
G01X-4400Y8200D01*
G01X-4400Y8200D02*
G01X-6600Y8200D01*
G01X-6600Y8200D02*
G01X-6600Y8800D01*
G04 draw reference designator for part R20*
G54D10*
G01X-6800Y8638D02*
G01X-6800Y8400D01*
G01X-6697Y8638D02*
G01X-6800Y8638D01*
G01X-6697Y8638D02*
G01X-6663Y8627D01*
G01X-6663Y8627D02*
G01X-6652Y8615D01*
G01X-6652Y8615D02*
G01X-6640Y8593D01*
G01X-6640Y8593D02*
G01X-6640Y8570D01*
G01X-6640Y8570D02*
G01X-6652Y8547D01*
G01X-6652Y8547D02*
G01X-6663Y8536D01*
G01X-6663Y8536D02*
G01X-6697Y8525D01*
G01X-6800Y8525D02*
G01X-6697Y8525D01*
G01X-6720Y8525D02*
G01X-6640Y8400D01*
G01X-6538Y8593D02*
G01X-6538Y8581D01*
G01X-6527Y8615D02*
G01X-6538Y8593D01*
G01X-6515Y8627D02*
G01X-6527Y8615D01*
G01X-6493Y8638D02*
G01X-6515Y8627D01*
G01X-6447Y8638D02*
G01X-6493Y8638D01*
G01X-6447Y8638D02*
G01X-6425Y8627D01*
G01X-6425Y8627D02*
G01X-6413Y8615D01*
G01X-6413Y8615D02*
G01X-6402Y8593D01*
G01X-6402Y8593D02*
G01X-6402Y8570D01*
G01X-6402Y8570D02*
G01X-6413Y8547D01*
G01X-6413Y8547D02*
G01X-6436Y8513D01*
G01X-6436Y8513D02*
G01X-6550Y8400D01*
G01X-6390Y8400D02*
G01X-6550Y8400D01*
G01X-6231Y8638D02*
G01X-6265Y8627D01*
G01X-6265Y8627D02*
G01X-6288Y8593D01*
G01X-6288Y8593D02*
G01X-6300Y8536D01*
G01X-6300Y8536D02*
G01X-6300Y8502D01*
G01X-6300Y8502D02*
G01X-6288Y8445D01*
G01X-6288Y8445D02*
G01X-6265Y8411D01*
G01X-6265Y8411D02*
G01X-6231Y8400D01*
G01X-6209Y8400D02*
G01X-6231Y8400D01*
G01X-6175Y8411D02*
G01X-6209Y8400D01*
G01X-6152Y8445D02*
G01X-6175Y8411D01*
G01X-6140Y8502D02*
G01X-6152Y8445D01*
G01X-6140Y8536D02*
G01X-6140Y8502D01*
G01X-6152Y8593D02*
G01X-6140Y8536D01*
G01X-6175Y8627D02*
G01X-6152Y8593D01*
G01X-6209Y8638D02*
G01X-6175Y8627D01*
G01X-6231Y8638D02*
G01X-6209Y8638D01*
G04 draw value for part R20*
G01X-5586Y8638D02*
G01X-5700Y8479D01*
G01X-5529Y8479D02*
G01X-5700Y8479D01*
G01X-5586Y8638D02*
G01X-5586Y8400D01*
G01X-5313Y8627D02*
G01X-5302Y8604D01*
G01X-5347Y8638D02*
G01X-5313Y8627D01*
G01X-5370Y8638D02*
G01X-5347Y8638D01*
G01X-5370Y8638D02*
G01X-5404Y8627D01*
G01X-5404Y8627D02*
G01X-5427Y8593D01*
G01X-5427Y8593D02*
G01X-5438Y8536D01*
G01X-5438Y8536D02*
G01X-5438Y8479D01*
G01X-5438Y8479D02*
G01X-5427Y8434D01*
G01X-5427Y8434D02*
G01X-5404Y8411D01*
G01X-5404Y8411D02*
G01X-5370Y8400D01*
G01X-5359Y8400D02*
G01X-5370Y8400D01*
G01X-5325Y8411D02*
G01X-5359Y8400D01*
G01X-5302Y8434D02*
G01X-5325Y8411D01*
G01X-5290Y8468D02*
G01X-5302Y8434D01*
G01X-5290Y8479D02*
G01X-5290Y8468D01*
G01X-5302Y8513D02*
G01X-5290Y8479D01*
G01X-5325Y8536D02*
G01X-5302Y8513D01*
G01X-5359Y8547D02*
G01X-5325Y8536D01*
G01X-5370Y8547D02*
G01X-5359Y8547D01*
G01X-5370Y8547D02*
G01X-5404Y8536D01*
G01X-5404Y8536D02*
G01X-5427Y8513D01*
G01X-5427Y8513D02*
G01X-5438Y8479D01*
G01X-5131Y8638D02*
G01X-5165Y8627D01*
G01X-5165Y8627D02*
G01X-5188Y8593D01*
G01X-5188Y8593D02*
G01X-5200Y8536D01*
G01X-5200Y8536D02*
G01X-5200Y8502D01*
G01X-5200Y8502D02*
G01X-5188Y8445D01*
G01X-5188Y8445D02*
G01X-5165Y8411D01*
G01X-5165Y8411D02*
G01X-5131Y8400D01*
G01X-5109Y8400D02*
G01X-5131Y8400D01*
G01X-5075Y8411D02*
G01X-5109Y8400D01*
G01X-5052Y8445D02*
G01X-5075Y8411D01*
G01X-5040Y8502D02*
G01X-5052Y8445D01*
G01X-5040Y8536D02*
G01X-5040Y8502D01*
G01X-5052Y8593D02*
G01X-5040Y8536D01*
G01X-5075Y8627D02*
G01X-5052Y8593D01*
G01X-5109Y8638D02*
G01X-5075Y8627D01*
G01X-5131Y8638D02*
G01X-5109Y8638D01*
G01X-4950Y8638D02*
G01X-4950Y8400D01*
G01X-4847Y8638D02*
G01X-4950Y8638D01*
G01X-4847Y8638D02*
G01X-4813Y8627D01*
G01X-4813Y8627D02*
G01X-4802Y8615D01*
G01X-4802Y8615D02*
G01X-4790Y8593D01*
G01X-4790Y8593D02*
G01X-4790Y8570D01*
G01X-4790Y8570D02*
G01X-4802Y8547D01*
G01X-4802Y8547D02*
G01X-4813Y8536D01*
G01X-4813Y8536D02*
G01X-4847Y8525D01*
G01X-4950Y8525D02*
G01X-4847Y8525D01*
G01X-4870Y8525D02*
G01X-4790Y8400D01*
G04 Draw part R21*
G04 draw part outline for part R21*
G54D11*
G01X-6700Y13350D02*
G01X-6700Y11150D01*
G01X-6700Y11150D02*
G01X-7300Y11150D01*
G01X-7300Y11150D02*
G01X-7300Y13350D01*
G01X-7300Y13350D02*
G01X-6700Y13350D01*
G04 draw reference designator for part R21*
G54D10*
G01X-6861Y13550D02*
G01X-7100Y13550D01*
G01X-6861Y13447D02*
G01X-6861Y13550D01*
G01X-6861Y13447D02*
G01X-6872Y13413D01*
G01X-6872Y13413D02*
G01X-6884Y13402D01*
G01X-6884Y13402D02*
G01X-6906Y13390D01*
G01X-6906Y13390D02*
G01X-6929Y13390D01*
G01X-6929Y13390D02*
G01X-6952Y13402D01*
G01X-6952Y13402D02*
G01X-6963Y13413D01*
G01X-6963Y13413D02*
G01X-6975Y13447D01*
G01X-6975Y13550D02*
G01X-6975Y13447D01*
G01X-6975Y13470D02*
G01X-7100Y13390D01*
G01X-6906Y13288D02*
G01X-6918Y13288D01*
G01X-6884Y13277D02*
G01X-6906Y13288D01*
G01X-6872Y13265D02*
G01X-6884Y13277D01*
G01X-6861Y13243D02*
G01X-6872Y13265D01*
G01X-6861Y13197D02*
G01X-6861Y13243D01*
G01X-6861Y13197D02*
G01X-6872Y13175D01*
G01X-6872Y13175D02*
G01X-6884Y13163D01*
G01X-6884Y13163D02*
G01X-6906Y13152D01*
G01X-6906Y13152D02*
G01X-6929Y13152D01*
G01X-6929Y13152D02*
G01X-6952Y13163D01*
G01X-6952Y13163D02*
G01X-6986Y13186D01*
G01X-6986Y13186D02*
G01X-7100Y13300D01*
G01X-7100Y13140D02*
G01X-7100Y13300D01*
G01X-6895Y13027D02*
G01X-6906Y13050D01*
G01X-6861Y12993D02*
G01X-6895Y13027D01*
G01X-6861Y12993D02*
G01X-7100Y12993D01*
G04 draw value for part R21*
G01X-6940Y12302D02*
G01X-6975Y12313D01*
G01X-6975Y12313D02*
G01X-6997Y12336D01*
G01X-6997Y12336D02*
G01X-7009Y12370D01*
G01X-7009Y12381D02*
G01X-7009Y12370D01*
G01X-6997Y12415D02*
G01X-7009Y12381D01*
G01X-6975Y12438D02*
G01X-6997Y12415D01*
G01X-6940Y12450D02*
G01X-6975Y12438D01*
G01X-6929Y12450D02*
G01X-6940Y12450D01*
G01X-6895Y12438D02*
G01X-6929Y12450D01*
G01X-6872Y12415D02*
G01X-6895Y12438D01*
G01X-6861Y12381D02*
G01X-6872Y12415D01*
G01X-6861Y12370D02*
G01X-6861Y12381D01*
G01X-6861Y12370D02*
G01X-6872Y12336D01*
G01X-6872Y12336D02*
G01X-6895Y12313D01*
G01X-6895Y12313D02*
G01X-6940Y12302D01*
G01X-6940Y12302D02*
G01X-6997Y12302D01*
G01X-6997Y12302D02*
G01X-7054Y12313D01*
G01X-7054Y12313D02*
G01X-7088Y12336D01*
G01X-7088Y12336D02*
G01X-7100Y12370D01*
G01X-7100Y12393D02*
G01X-7100Y12370D01*
G01X-7088Y12427D02*
G01X-7100Y12393D01*
G01X-7065Y12438D02*
G01X-7088Y12427D01*
G01X-6906Y12200D02*
G01X-6918Y12200D01*
G01X-6884Y12188D02*
G01X-6906Y12200D01*
G01X-6872Y12177D02*
G01X-6884Y12188D01*
G01X-6861Y12154D02*
G01X-6872Y12177D01*
G01X-6861Y12109D02*
G01X-6861Y12154D01*
G01X-6861Y12109D02*
G01X-6872Y12086D01*
G01X-6872Y12086D02*
G01X-6884Y12075D01*
G01X-6884Y12075D02*
G01X-6906Y12063D01*
G01X-6906Y12063D02*
G01X-6929Y12063D01*
G01X-6929Y12063D02*
G01X-6952Y12075D01*
G01X-6952Y12075D02*
G01X-6986Y12097D01*
G01X-6986Y12097D02*
G01X-7100Y12211D01*
G01X-7100Y12052D02*
G01X-7100Y12211D01*
G01X-6861Y11893D02*
G01X-6872Y11927D01*
G01X-6872Y11927D02*
G01X-6906Y11950D01*
G01X-6906Y11950D02*
G01X-6963Y11961D01*
G01X-6963Y11961D02*
G01X-6997Y11961D01*
G01X-6997Y11961D02*
G01X-7054Y11950D01*
G01X-7054Y11950D02*
G01X-7088Y11927D01*
G01X-7088Y11927D02*
G01X-7100Y11893D01*
G01X-7100Y11870D02*
G01X-7100Y11893D01*
G01X-7088Y11836D02*
G01X-7100Y11870D01*
G01X-7054Y11813D02*
G01X-7088Y11836D01*
G01X-6997Y11802D02*
G01X-7054Y11813D01*
G01X-6963Y11802D02*
G01X-6997Y11802D01*
G01X-6906Y11813D02*
G01X-6963Y11802D01*
G01X-6872Y11836D02*
G01X-6906Y11813D01*
G01X-6861Y11870D02*
G01X-6872Y11836D01*
G01X-6861Y11893D02*
G01X-6861Y11870D01*
G01X-6861Y11711D02*
G01X-7100Y11711D01*
G01X-6861Y11609D02*
G01X-6861Y11711D01*
G01X-6861Y11609D02*
G01X-6872Y11575D01*
G01X-6872Y11575D02*
G01X-6884Y11563D01*
G01X-6884Y11563D02*
G01X-6906Y11552D01*
G01X-6906Y11552D02*
G01X-6929Y11552D01*
G01X-6929Y11552D02*
G01X-6952Y11563D01*
G01X-6952Y11563D02*
G01X-6963Y11575D01*
G01X-6963Y11575D02*
G01X-6975Y11609D01*
G01X-6975Y11711D02*
G01X-6975Y11609D01*
G01X-6975Y11631D02*
G01X-7100Y11552D01*
G04 Draw part C1*
G04 draw part outline for part C1*
G54D11*
G01X8500Y14500D02*
G01X8500Y11500D01*
G01X8500Y11500D02*
G01X7500Y11500D01*
G01X7500Y11500D02*
G01X7500Y14500D01*
G01X7500Y14500D02*
G01X8500Y14500D01*
G04 draw reference designator for part C1*
G01X9209Y12681D02*
G01X9163Y12659D01*
G01X9254Y12727D02*
G01X9209Y12681D01*
G01X9277Y12772D02*
G01X9254Y12727D01*
G01X9277Y12863D02*
G01X9277Y12772D01*
G01X9277Y12863D02*
G01X9254Y12909D01*
G01X9254Y12909D02*
G01X9209Y12954D01*
G01X9209Y12954D02*
G01X9163Y12977D01*
G01X9163Y12977D02*
G01X9095Y13000D01*
G01X9095Y13000D02*
G01X8981Y13000D01*
G01X8981Y13000D02*
G01X8913Y12977D01*
G01X8913Y12977D02*
G01X8868Y12954D01*
G01X8868Y12954D02*
G01X8822Y12909D01*
G01X8822Y12909D02*
G01X8800Y12863D01*
G01X8800Y12772D02*
G01X8800Y12863D01*
G01X8822Y12727D02*
G01X8800Y12772D01*
G01X8868Y12681D02*
G01X8822Y12727D01*
G01X8913Y12659D02*
G01X8868Y12681D01*
G01X9209Y12431D02*
G01X9186Y12477D01*
G01X9277Y12363D02*
G01X9209Y12431D01*
G01X9277Y12363D02*
G01X8800Y12363D01*
G04 draw value for part C1*
G01X8209Y12954D02*
G01X8186Y13000D01*
G01X8277Y12886D02*
G01X8209Y12954D01*
G01X8277Y12886D02*
G01X7800Y12886D01*
G01X8277Y12568D02*
G01X8254Y12636D01*
G01X8254Y12636D02*
G01X8186Y12681D01*
G01X8186Y12681D02*
G01X8072Y12704D01*
G01X8072Y12704D02*
G01X8004Y12704D01*
G01X8004Y12704D02*
G01X7890Y12681D01*
G01X7890Y12681D02*
G01X7822Y12636D01*
G01X7822Y12636D02*
G01X7800Y12568D01*
G01X7800Y12522D02*
G01X7800Y12568D01*
G01X7822Y12454D02*
G01X7800Y12522D01*
G01X7890Y12409D02*
G01X7822Y12454D01*
G01X8004Y12386D02*
G01X7890Y12409D01*
G01X8072Y12386D02*
G01X8004Y12386D01*
G01X8186Y12409D02*
G01X8072Y12386D01*
G01X8254Y12454D02*
G01X8186Y12409D01*
G01X8277Y12522D02*
G01X8254Y12454D01*
G01X8277Y12568D02*
G01X8277Y12522D01*
G01X8277Y12068D02*
G01X8254Y12136D01*
G01X8254Y12136D02*
G01X8186Y12181D01*
G01X8186Y12181D02*
G01X8072Y12204D01*
G01X8072Y12204D02*
G01X8004Y12204D01*
G01X8004Y12204D02*
G01X7890Y12181D01*
G01X7890Y12181D02*
G01X7822Y12136D01*
G01X7822Y12136D02*
G01X7800Y12068D01*
G01X7800Y12022D02*
G01X7800Y12068D01*
G01X7822Y11954D02*
G01X7800Y12022D01*
G01X7890Y11909D02*
G01X7822Y11954D01*
G01X8004Y11886D02*
G01X7890Y11909D01*
G01X8072Y11886D02*
G01X8004Y11886D01*
G01X8186Y11909D02*
G01X8072Y11886D01*
G01X8254Y11954D02*
G01X8186Y11909D01*
G01X8277Y12022D02*
G01X8254Y11954D01*
G01X8277Y12068D02*
G01X8277Y12022D01*
G01X8118Y11704D02*
G01X7800Y11704D01*
G01X8095Y11636D02*
G01X8027Y11704D01*
G01X8118Y11590D02*
G01X8095Y11636D01*
G01X8118Y11522D02*
G01X8118Y11590D01*
G01X8118Y11522D02*
G01X8095Y11477D01*
G01X8095Y11477D02*
G01X8027Y11454D01*
G01X8027Y11454D02*
G01X7800Y11454D01*
G04 Draw part R01*
G04 Draw part C2*
G04 draw part outline for part C2*
G01X-2500Y11000D02*
G01X500Y11000D01*
G01X500Y11000D02*
G01X500Y10000D01*
G01X500Y10000D02*
G01X-2500Y10000D01*
G01X-2500Y10000D02*
G01X-2500Y11000D01*
G04 draw reference designator for part C2*
G01X-681Y11709D02*
G01X-659Y11663D01*
G01X-727Y11754D02*
G01X-681Y11709D01*
G01X-772Y11777D02*
G01X-727Y11754D01*
G01X-863Y11777D02*
G01X-772Y11777D01*
G01X-863Y11777D02*
G01X-909Y11754D01*
G01X-909Y11754D02*
G01X-954Y11709D01*
G01X-954Y11709D02*
G01X-977Y11663D01*
G01X-977Y11663D02*
G01X-1000Y11595D01*
G01X-1000Y11595D02*
G01X-1000Y11481D01*
G01X-1000Y11481D02*
G01X-977Y11413D01*
G01X-977Y11413D02*
G01X-954Y11368D01*
G01X-954Y11368D02*
G01X-909Y11322D01*
G01X-909Y11322D02*
G01X-863Y11300D01*
G01X-772Y11300D02*
G01X-863Y11300D01*
G01X-727Y11322D02*
G01X-772Y11300D01*
G01X-681Y11368D02*
G01X-727Y11322D01*
G01X-659Y11413D02*
G01X-681Y11368D01*
G01X-454Y11686D02*
G01X-454Y11663D01*
G01X-431Y11731D02*
G01X-454Y11686D01*
G01X-409Y11754D02*
G01X-431Y11731D01*
G01X-363Y11777D02*
G01X-409Y11754D01*
G01X-272Y11777D02*
G01X-363Y11777D01*
G01X-272Y11777D02*
G01X-227Y11754D01*
G01X-227Y11754D02*
G01X-204Y11731D01*
G01X-204Y11731D02*
G01X-181Y11686D01*
G01X-181Y11686D02*
G01X-181Y11640D01*
G01X-181Y11640D02*
G01X-204Y11595D01*
G01X-204Y11595D02*
G01X-250Y11527D01*
G01X-250Y11527D02*
G01X-477Y11300D01*
G01X-159Y11300D02*
G01X-477Y11300D01*
G04 Draw part C3*
G04 draw part outline for part C3*
G54D12*
G01X1000Y8700D02*
G01X960Y8700D01*
G01X921Y8703D01*
G01X882Y8708D01*
G01X843Y8715D01*
G01X805Y8723D01*
G01X767Y8734D01*
G01X730Y8746D01*
G01X693Y8760D01*
G01X657Y8776D01*
G01X622Y8794D01*
G01X588Y8813D01*
G01X555Y8834D01*
G01X523Y8857D01*
G01X492Y8881D01*
G01X462Y8907D01*
G01X434Y8934D01*
G01X407Y8962D01*
G01X381Y8992D01*
G01X357Y9023D01*
G01X334Y9055D01*
G01X313Y9088D01*
G01X294Y9122D01*
G01X276Y9157D01*
G01X260Y9193D01*
G01X246Y9230D01*
G01X234Y9267D01*
G01X223Y9305D01*
G01X215Y9343D01*
G01X208Y9382D01*
G01X203Y9421D01*
G01X200Y9460D01*
G01X200Y9500D01*
G01X200Y9500D02*
G01X200Y9539D01*
G01X203Y9578D01*
G01X208Y9617D01*
G01X215Y9656D01*
G01X223Y9694D01*
G01X234Y9732D01*
G01X246Y9769D01*
G01X260Y9806D01*
G01X276Y9842D01*
G01X294Y9877D01*
G01X313Y9911D01*
G01X334Y9944D01*
G01X357Y9976D01*
G01X381Y10007D01*
G01X407Y10037D01*
G01X434Y10065D01*
G01X462Y10092D01*
G01X492Y10118D01*
G01X523Y10142D01*
G01X555Y10165D01*
G01X588Y10186D01*
G01X622Y10205D01*
G01X657Y10223D01*
G01X693Y10239D01*
G01X730Y10253D01*
G01X767Y10265D01*
G01X805Y10276D01*
G01X843Y10284D01*
G01X882Y10291D01*
G01X921Y10296D01*
G01X960Y10299D01*
G01X1000Y10300D01*
G01X1000Y8700D02*
G01X1039Y8700D01*
G01X1078Y8703D01*
G01X1117Y8708D01*
G01X1156Y8715D01*
G01X1194Y8723D01*
G01X1232Y8734D01*
G01X1269Y8746D01*
G01X1306Y8760D01*
G01X1342Y8776D01*
G01X1377Y8794D01*
G01X1411Y8813D01*
G01X1444Y8834D01*
G01X1476Y8857D01*
G01X1507Y8881D01*
G01X1537Y8907D01*
G01X1565Y8934D01*
G01X1592Y8962D01*
G01X1618Y8992D01*
G01X1642Y9023D01*
G01X1665Y9055D01*
G01X1686Y9088D01*
G01X1705Y9122D01*
G01X1723Y9157D01*
G01X1739Y9193D01*
G01X1753Y9230D01*
G01X1765Y9267D01*
G01X1776Y9305D01*
G01X1784Y9343D01*
G01X1791Y9382D01*
G01X1796Y9421D01*
G01X1799Y9460D01*
G01X1800Y9500D01*
G01X1800Y9500D02*
G01X1799Y9539D01*
G01X1796Y9578D01*
G01X1791Y9617D01*
G01X1784Y9656D01*
G01X1776Y9694D01*
G01X1765Y9732D01*
G01X1753Y9769D01*
G01X1739Y9806D01*
G01X1723Y9842D01*
G01X1705Y9877D01*
G01X1686Y9911D01*
G01X1665Y9944D01*
G01X1642Y9976D01*
G01X1618Y10007D01*
G01X1592Y10037D01*
G01X1565Y10065D01*
G01X1537Y10092D01*
G01X1507Y10118D01*
G01X1476Y10142D01*
G01X1444Y10165D01*
G01X1411Y10186D01*
G01X1377Y10205D01*
G01X1342Y10223D01*
G01X1306Y10239D01*
G01X1269Y10253D01*
G01X1232Y10265D01*
G01X1194Y10276D01*
G01X1156Y10284D01*
G01X1117Y10291D01*
G01X1078Y10296D01*
G01X1039Y10299D01*
G01X1000Y10300D01*
G04 draw reference designator for part C3*
G54D11*
G01X-459Y9668D02*
G01X-413Y9690D01*
G01X-504Y9622D02*
G01X-459Y9668D01*
G01X-527Y9577D02*
G01X-504Y9622D01*
G01X-527Y9486D02*
G01X-527Y9577D01*
G01X-527Y9486D02*
G01X-504Y9440D01*
G01X-504Y9440D02*
G01X-459Y9395D01*
G01X-459Y9395D02*
G01X-413Y9372D01*
G01X-413Y9372D02*
G01X-345Y9350D01*
G01X-345Y9350D02*
G01X-231Y9350D01*
G01X-231Y9350D02*
G01X-163Y9372D01*
G01X-163Y9372D02*
G01X-118Y9395D01*
G01X-118Y9395D02*
G01X-72Y9440D01*
G01X-72Y9440D02*
G01X-50Y9486D01*
G01X-50Y9577D02*
G01X-50Y9486D01*
G01X-72Y9622D02*
G01X-50Y9577D01*
G01X-118Y9668D02*
G01X-72Y9622D01*
G01X-163Y9690D02*
G01X-118Y9668D01*
G01X-527Y10168D02*
G01X-527Y9918D01*
G01X-527Y10168D02*
G01X-345Y10031D01*
G01X-345Y10100D02*
G01X-345Y10031D01*
G01X-345Y10100D02*
G01X-322Y10145D01*
G01X-322Y10145D02*
G01X-300Y10168D01*
G01X-300Y10168D02*
G01X-231Y10190D01*
G01X-231Y10190D02*
G01X-186Y10190D01*
G01X-186Y10190D02*
G01X-118Y10168D01*
G01X-118Y10168D02*
G01X-72Y10122D01*
G01X-72Y10122D02*
G01X-50Y10054D01*
G01X-50Y9986D02*
G01X-50Y10054D01*
G01X-72Y9918D02*
G01X-50Y9986D01*
G01X-95Y9895D02*
G01X-72Y9918D01*
G01X-140Y9872D02*
G01X-95Y9895D01*
G04 Draw part R03*
G04 Draw part R05*
G04 draw part outline for part R05*
G01X-6600Y9800D02*
G01X-4400Y9800D01*
G01X-4400Y9800D02*
G01X-4400Y9200D01*
G01X-4400Y9200D02*
G01X-6600Y9200D01*
G01X-6600Y9200D02*
G01X-6600Y9800D01*
G04 draw reference designator for part R05*
G54D10*
G01X-6800Y9638D02*
G01X-6800Y9400D01*
G01X-6697Y9638D02*
G01X-6800Y9638D01*
G01X-6697Y9638D02*
G01X-6663Y9627D01*
G01X-6663Y9627D02*
G01X-6652Y9615D01*
G01X-6652Y9615D02*
G01X-6640Y9593D01*
G01X-6640Y9593D02*
G01X-6640Y9570D01*
G01X-6640Y9570D02*
G01X-6652Y9547D01*
G01X-6652Y9547D02*
G01X-6663Y9536D01*
G01X-6663Y9536D02*
G01X-6697Y9525D01*
G01X-6800Y9525D02*
G01X-6697Y9525D01*
G01X-6720Y9525D02*
G01X-6640Y9400D01*
G01X-6481Y9638D02*
G01X-6515Y9627D01*
G01X-6515Y9627D02*
G01X-6538Y9593D01*
G01X-6538Y9593D02*
G01X-6550Y9536D01*
G01X-6550Y9536D02*
G01X-6550Y9502D01*
G01X-6550Y9502D02*
G01X-6538Y9445D01*
G01X-6538Y9445D02*
G01X-6515Y9411D01*
G01X-6515Y9411D02*
G01X-6481Y9400D01*
G01X-6459Y9400D02*
G01X-6481Y9400D01*
G01X-6425Y9411D02*
G01X-6459Y9400D01*
G01X-6402Y9445D02*
G01X-6425Y9411D01*
G01X-6390Y9502D02*
G01X-6402Y9445D01*
G01X-6390Y9536D02*
G01X-6390Y9502D01*
G01X-6402Y9593D02*
G01X-6390Y9536D01*
G01X-6425Y9627D02*
G01X-6402Y9593D01*
G01X-6459Y9638D02*
G01X-6425Y9627D01*
G01X-6481Y9638D02*
G01X-6459Y9638D01*
G01X-6277Y9638D02*
G01X-6163Y9638D01*
G01X-6277Y9638D02*
G01X-6288Y9536D01*
G01X-6277Y9547D02*
G01X-6288Y9536D01*
G01X-6243Y9559D02*
G01X-6277Y9547D01*
G01X-6209Y9559D02*
G01X-6243Y9559D01*
G01X-6209Y9559D02*
G01X-6175Y9547D01*
G01X-6175Y9547D02*
G01X-6152Y9525D01*
G01X-6152Y9525D02*
G01X-6140Y9490D01*
G01X-6140Y9490D02*
G01X-6140Y9468D01*
G01X-6140Y9468D02*
G01X-6152Y9434D01*
G01X-6152Y9434D02*
G01X-6175Y9411D01*
G01X-6175Y9411D02*
G01X-6209Y9400D01*
G01X-6243Y9400D02*
G01X-6209Y9400D01*
G01X-6277Y9411D02*
G01X-6243Y9400D01*
G01X-6288Y9422D02*
G01X-6277Y9411D01*
G01X-6300Y9445D02*
G01X-6288Y9422D01*
G04 draw value for part R05*
G01X-5586Y9638D02*
G01X-5700Y9479D01*
G01X-5529Y9479D02*
G01X-5700Y9479D01*
G01X-5586Y9638D02*
G01X-5586Y9400D01*
G01X-5313Y9627D02*
G01X-5302Y9604D01*
G01X-5347Y9638D02*
G01X-5313Y9627D01*
G01X-5370Y9638D02*
G01X-5347Y9638D01*
G01X-5370Y9638D02*
G01X-5404Y9627D01*
G01X-5404Y9627D02*
G01X-5427Y9593D01*
G01X-5427Y9593D02*
G01X-5438Y9536D01*
G01X-5438Y9536D02*
G01X-5438Y9479D01*
G01X-5438Y9479D02*
G01X-5427Y9434D01*
G01X-5427Y9434D02*
G01X-5404Y9411D01*
G01X-5404Y9411D02*
G01X-5370Y9400D01*
G01X-5359Y9400D02*
G01X-5370Y9400D01*
G01X-5325Y9411D02*
G01X-5359Y9400D01*
G01X-5302Y9434D02*
G01X-5325Y9411D01*
G01X-5290Y9468D02*
G01X-5302Y9434D01*
G01X-5290Y9479D02*
G01X-5290Y9468D01*
G01X-5302Y9513D02*
G01X-5290Y9479D01*
G01X-5325Y9536D02*
G01X-5302Y9513D01*
G01X-5359Y9547D02*
G01X-5325Y9536D01*
G01X-5370Y9547D02*
G01X-5359Y9547D01*
G01X-5370Y9547D02*
G01X-5404Y9536D01*
G01X-5404Y9536D02*
G01X-5427Y9513D01*
G01X-5427Y9513D02*
G01X-5438Y9479D01*
G01X-5131Y9638D02*
G01X-5165Y9627D01*
G01X-5165Y9627D02*
G01X-5188Y9593D01*
G01X-5188Y9593D02*
G01X-5200Y9536D01*
G01X-5200Y9536D02*
G01X-5200Y9502D01*
G01X-5200Y9502D02*
G01X-5188Y9445D01*
G01X-5188Y9445D02*
G01X-5165Y9411D01*
G01X-5165Y9411D02*
G01X-5131Y9400D01*
G01X-5109Y9400D02*
G01X-5131Y9400D01*
G01X-5075Y9411D02*
G01X-5109Y9400D01*
G01X-5052Y9445D02*
G01X-5075Y9411D01*
G01X-5040Y9502D02*
G01X-5052Y9445D01*
G01X-5040Y9536D02*
G01X-5040Y9502D01*
G01X-5052Y9593D02*
G01X-5040Y9536D01*
G01X-5075Y9627D02*
G01X-5052Y9593D01*
G01X-5109Y9638D02*
G01X-5075Y9627D01*
G01X-5131Y9638D02*
G01X-5109Y9638D01*
G01X-4950Y9638D02*
G01X-4950Y9400D01*
G01X-4847Y9638D02*
G01X-4950Y9638D01*
G01X-4847Y9638D02*
G01X-4813Y9627D01*
G01X-4813Y9627D02*
G01X-4802Y9615D01*
G01X-4802Y9615D02*
G01X-4790Y9593D01*
G01X-4790Y9593D02*
G01X-4790Y9570D01*
G01X-4790Y9570D02*
G01X-4802Y9547D01*
G01X-4802Y9547D02*
G01X-4813Y9536D01*
G01X-4813Y9536D02*
G01X-4847Y9525D01*
G01X-4950Y9525D02*
G01X-4847Y9525D01*
G01X-4870Y9525D02*
G01X-4790Y9400D01*
G04 Draw part J1*
G04 draw part outline for part J1*
G04 draw reference designator for part J1*
G01X2318Y4981D02*
G01X2609Y4981D01*
G01X2609Y4981D02*
G01X2663Y4963D01*
G01X2663Y4963D02*
G01X2681Y4945D01*
G01X2681Y4945D02*
G01X2700Y4909D01*
G01X2700Y4872D02*
G01X2700Y4909D01*
G01X2681Y4836D02*
G01X2700Y4872D01*
G01X2663Y4818D02*
G01X2681Y4836D01*
G01X2609Y4800D02*
G01X2663Y4818D01*
G01X2572Y4800D02*
G01X2609Y4800D01*
G01X2372Y5163D02*
G01X2390Y5127D01*
G01X2318Y5218D02*
G01X2372Y5163D01*
G01X2318Y5218D02*
G01X2700Y5218D01*
G04 Draw part PWR*

G04 Draw traces*

G04 Draw Text*
M00*
M02*
