<?xml version="1.0" standalone="no"?>
<!DOCTYPE svg PUBLIC "-//W3C//DTD SVG 20010904//EN"
 "http://www.w3.org/TR/2001/REC-SVG-20010904/DTD/svg10.dtd">
<svg version="1.0" xmlns="http://www.w3.org/2000/svg"
 width="100.000000pt" height="100.000000pt" viewBox="0 0 100.000000 100.000000"
 preserveAspectRatio="xMidYMid meet">
<metadata>
Created by potrace 1.10, written by Peter Selinger 2001-2011
</metadata>
<g transform="translate(04.000000,77.000000) scale(0.0300000,-0.030000)"
fill="#000000" stroke="none">
<path d="M1716 1531 c-9 -10 -74 -204 -143 -430 -69 -226 -128 -410 -130 -408
-2 2 -25 179 -52 394 -26 214 -54 399 -60 411 -14 27 -55 38 -85 24 -16 -7
-99 -156 -291 -523 -147 -283 -272 -520 -278 -526 -7 -10 -63 -13 -216 -13
-233 0 -251 -5 -251 -63 0 -72 18 -77 284 -77 143 0 234 4 249 11 24 11 64 84
421 769 38 72 67 118 70 110 3 -8 29 -212 59 -453 44 -353 58 -442 72 -457 23
-25 76 -26 97 -2 9 9 77 220 153 467 76 248 140 455 144 462 3 7 58 -155 121
-360 62 -205 127 -413 142 -464 16 -51 36 -99 44 -108 24 -24 81 -19 98 7 10
16 32 168 66 463 27 242 53 454 55 472 l6 32 275 3 276 3 19 24 c25 30 24 66
-1 91 -19 19 -33 20 -336 20 -185 0 -323 -4 -333 -10 -10 -5 -21 -17 -25 -26
-3 -9 -22 -154 -41 -323 -20 -168 -38 -317 -41 -331 -6 -26 -15 -1 -179 535
-42 138 -83 260 -91 273 -18 28 -73 30 -98 3z"/>
</g>
</svg>
