<?xml version="1.0" encoding="iso-8859-1"?>
<!-- Uploaded to: SVG Repo, www.svgrepo.com, Generator: SVG Repo Mixer Tools -->
<svg fill="#000000" height="100px" width="100px" version="1.1" id="Layer_1"
	 xmlns="http://www.w3.org/2000/svg"
	 viewBox="0 0 512.001 512.001" xml:space="preserve">
<g>
	<g>
		<path d="M492.019,180.639c-13.264-12.92-32.551-19.201-58.96-19.201c-32.591,0-91.473,16.856-128.88,41.577
			c-2.732-2.487-5.665-4.755-8.756-6.801c10.937-17.826,23.455-39.08,33.827-57.473c21.313-37.795,21.313-41.186,21.313-44.178
			c0-53.256-59.865-94.563-111.366-94.563c-26.308,0-45.463,6.536-58.559,19.981c-12.92,13.264-19.201,32.55-19.201,58.96
			c0,32.59,16.856,91.471,41.577,128.88c-2.487,2.732-4.755,5.665-6.801,8.756c-17.826-10.938-39.08-23.455-57.471-33.826
			c-37.795-21.313-41.186-21.313-44.179-21.313C41.307,161.438,0,221.303,0,272.804c0,26.308,6.536,45.463,19.981,58.559
			c13.265,12.92,32.551,19.201,58.96,19.201c32.591,0,91.473-16.856,128.88-41.577c2.732,2.487,5.665,4.755,8.756,6.801
			c-10.937,17.825-23.454,39.079-33.826,57.473c-21.313,37.795-21.313,41.186-21.313,44.178c0,53.256,59.865,94.563,111.365,94.563
			c26.308,0,45.463-6.536,58.56-19.981c12.92-13.264,19.201-32.55,19.201-58.96c0-32.59-16.856-91.471-41.577-128.88
			c2.487-2.732,4.755-5.665,6.801-8.756c17.826,10.937,39.08,23.455,57.471,33.826c37.795,21.313,41.186,21.313,44.179,21.313
			c53.255,0,94.563-59.865,94.563-111.365C512,212.889,505.464,193.734,492.019,180.639z M78.94,330.166
			c-20.828-0.001-35.459-4.39-44.727-13.416c-9.296-9.055-13.815-23.43-13.815-43.946c0-20.679,8.424-43.768,22.536-61.762
			c14.446-18.421,32.304-28.747,50.413-29.19c9.027,3.41,55.027,29.194,94.111,53.285c-2.014,6.605-3.108,13.609-3.108,20.866
			c0,13.592,3.805,26.313,10.405,37.153C161.203,314.651,107.993,330.166,78.94,330.166z M181.836,78.941
			c-0.001-20.829,4.387-35.46,13.414-44.728c9.055-9.296,23.431-13.815,43.946-13.815c20.679,0,43.768,8.425,61.762,22.536
			c18.421,14.446,28.747,32.304,29.191,50.413c-3.41,9.029-29.195,55.03-53.285,94.111c-6.605-2.014-13.609-3.108-20.865-3.108
			c-13.592,0-26.313,3.805-37.153,10.405C197.352,161.202,181.836,107.993,181.836,78.941z M204.749,256.001
			c0-28.26,22.991-51.251,51.251-51.251s51.251,22.991,51.251,51.251S284.26,307.251,256,307.251S204.749,284.26,204.749,256.001z
			 M330.166,433.06c-0.001,20.829-4.389,35.46-13.416,44.728c-9.055,9.296-23.43,13.815-43.946,13.815
			c-20.679,0-43.768-8.425-61.761-22.536c-18.421-14.446-28.747-32.304-29.191-50.413c3.41-9.029,29.195-55.031,53.285-94.111
			c6.605,2.014,13.609,3.108,20.865,3.108c13.593,0,26.313-3.805,37.153-10.405C314.649,350.799,330.166,404.008,330.166,433.06z
			 M469.065,300.96c-14.446,18.421-32.304,28.747-50.413,29.19c-9.027-3.41-55.028-29.194-94.112-53.285
			c2.014-6.606,3.108-13.609,3.108-20.866c0-13.592-3.805-26.313-10.405-37.153c33.553-21.497,86.763-37.012,115.816-37.012
			c20.829,0,35.459,4.389,44.727,13.415c9.297,9.055,13.815,23.43,13.815,43.946C491.602,259.877,483.177,282.965,469.065,300.96z"
        />
	</g>
</g>
    <g>
	<g>
		<path d="M289.278,243.325c-2.006-5.265-7.898-7.905-13.163-5.899c-5.264,2.006-7.904,7.899-5.899,13.162
			c0.657,1.722,0.989,3.542,0.989,5.413c0,5.632,4.566,10.199,10.199,10.199s10.199-4.567,10.199-10.199
			C291.603,251.639,290.821,247.374,289.278,243.325z"/>
	</g>
</g>
    <g>
	<g>
		<path d="M255.849,220.766c-19.88,0-35.452,15.477-35.452,35.234c0,5.632,4.566,10.199,10.199,10.199s10.199-4.567,10.199-10.199
			c0-8.318,6.612-14.836,15.054-14.836c5.633,0,10.199-4.566,10.199-10.199C266.048,225.334,261.482,220.766,255.849,220.766z"/>
	</g>
</g>
</svg>