<?xml version="1.0" standalone="no"?>
<!DOCTYPE svg PUBLIC "-//W3C//DTD SVG 20010904//EN"
 "http://www.w3.org/TR/2001/REC-SVG-20010904/DTD/svg10.dtd">
<svg version="1.0" xmlns="http://www.w3.org/2000/svg"
 width="299.000000pt" height="299.000000pt" viewBox="0 0 299.000000 299.000000"
 preserveAspectRatio="xMidYMid meet">

<g transform="translate(0.000000,299.000000) scale(0.100000,-0.100000)"
fill="#000000" stroke="none">
<path d="M1465 2696 c-80 -19 -171 -74 -230 -138 -173 -187 -192 -504 -47
-801 l48 -99 -23 -46 c-12 -26 -23 -55 -23 -65 0 -23 -31 -34 -132 -47 -69 -8
-99 -7 -178 7 -52 10 -126 18 -165 18 -207 -2 -365 -182 -365 -415 0 -217 128
-382 345 -445 85 -25 226 -17 319 19 171 65 331 213 434 402 37 69 37 69 87
75 28 3 62 9 76 13 23 6 32 1 73 -45 62 -69 92 -122 131 -229 41 -114 75 -171
128 -214 69 -57 130 -79 229 -84 214 -11 386 112 450 321 24 82 22 211 -7 292
-26 76 -101 182 -164 231 -139 111 -302 164 -518 171 -79 3 -143 9 -143 13 0
4 -16 28 -35 53 l-35 45 20 58 c28 80 59 129 141 226 80 94 101 130 119 207
68 289 -227 552 -535 477z m249 -150 c106 -52 175 -165 163 -267 -8 -61 -27
-99 -91 -174 -29 -33 -64 -77 -79 -97 -28 -38 -90 -161 -99 -196 -5 -18 -13
-19 -75 -15 -62 5 -128 -7 -189 -33 -6 -3 -25 24 -41 58 -76 156 -99 308 -68
451 33 155 128 264 260 298 58 15 161 3 219 -25z m-126 -897 c91 -44 130 -165
83 -257 -23 -46 -46 -67 -94 -87 -84 -35 -179 -4 -228 73 -102 160 69 353 239
271z m537 -184 c157 -43 285 -134 346 -247 32 -59 34 -69 34 -158 0 -76 -4
-104 -21 -141 -91 -197 -352 -255 -478 -107 -22 25 -46 74 -67 136 -38 108
-79 181 -146 260 -39 45 -45 57 -34 71 26 36 60 119 67 165 l7 49 116 -6 c64
-3 143 -13 176 -22z m-1303 -79 c114 -26 180 -29 278 -12 51 9 94 15 95 14 1
-2 13 -25 26 -52 13 -26 48 -71 78 -98 l54 -49 -17 -37 c-50 -104 -156 -220
-267 -292 -211 -136 -454 -91 -557 103 -24 46 -27 63 -27 147 0 84 3 101 27
146 30 57 73 98 133 125 48 22 93 24 177 5z"/>
<path d="M2150 2373 c0 -16 7 -83 16 -151 20 -144 34 -173 80 -157 27 10 29
15 34 70 l5 59 53 -70 c88 -113 172 -315 172 -413 0 -14 5 -43 11 -63 11 -43
43 -57 79 -38 21 11 22 17 17 94 -13 182 -101 391 -223 525 l-37 41 53 -1 c41
-2 56 2 66 16 14 19 10 51 -7 69 -8 9 -241 44 -296 46 -18 0 -23 -6 -23 -27z"/>
<path d="M833 2370 c-61 -37 -184 -164 -238 -244 -44 -67 -96 -175 -117 -245
-2 -8 -15 7 -29 35 -17 34 -31 50 -47 52 -31 5 -52 -15 -52 -49 0 -42 101
-289 118 -289 20 0 251 172 258 192 7 23 -11 55 -37 63 -15 5 -34 -2 -66 -25
l-46 -31 7 28 c15 60 99 211 157 281 33 40 87 94 120 119 63 49 76 84 43 117
-20 21 -32 20 -71 -4z"/>
<path d="M1221 610 c-68 -27 -128 -53 -133 -58 -10 -10 54 -119 129 -223 31
-44 40 -50 67 -47 23 2 33 10 40 30 8 22 5 34 -17 67 -15 23 -24 41 -21 41 4
0 43 -7 87 -16 158 -32 449 -4 535 52 24 16 30 62 10 82 -17 17 -43 15 -114
-7 -127 -40 -321 -45 -445 -10 l-44 12 35 14 c67 28 87 64 54 97 -23 24 -48
19 -183 -34z"/>
</g>
</svg>
