<?xml version="1.0" standalone="no"?>
<!DOCTYPE svg PUBLIC "-//W3C//DTD SVG 20010904//EN"
 "http://www.w3.org/TR/2001/REC-SVG-20010904/DTD/svg10.dtd">
<svg version="1.0" xmlns="http://www.w3.org/2000/svg"
 width="100.000000pt" height="100.000000pt" viewBox="0 0 100.000000 100.000000"
 preserveAspectRatio="xMidYMid meet">
<metadata>
Created by potrace 1.10, written by Peter Selinger 2001-2011
</metadata>
<g transform="translate(10.000000,97.000000) scale(0.02700000,-0.027)"
fill="#000000" stroke="none">
<path d="M1225 3450 c-43 -17 -50 -38 -55 -164 l-5 -121 -78 -3 c-57 -2 -83 1
-99 13 -13 8 -39 15 -59 15 -73 0 -117 -81 -87 -158 12 -31 12 -42 2 -67 -7
-17 -13 -46 -14 -65 0 -31 -4 -38 -32 -48 -65 -23 -63 3 -66 -649 l-3 -593
-57 0 c-31 0 -75 7 -97 17 l-40 16 -3 380 c-2 234 -7 388 -13 400 -17 30 -70
48 -112 36 -67 -18 -67 -19 -67 -397 0 -320 -1 -340 -20 -377 -13 -25 -18 -49
-15 -64 10 -40 65 -101 95 -108 23 -4 29 -12 35 -42 9 -52 29 -78 70 -91 30
-10 41 -9 78 9 27 13 63 21 95 21 l52 0 0 -465 0 -465 -94 0 c-80 0 -98 -3
-127 -23 -86 -57 -94 -204 -14 -277 l27 -25 1018 0 1019 0 28 21 c44 33 66 79
66 139 0 107 -69 165 -195 165 l-68 0 0 1158 c0 1286 5 1188 -66 1218 -31 13
-34 18 -34 57 0 24 -9 70 -20 104 -44 128 -73 135 -545 142 l-360 6 -2 105
c-4 134 -7 147 -46 170 -34 21 -59 24 -92 10z m839 -500 c22 -8 26 -16 26 -50
l0 -40 -505 0 c-278 0 -505 2 -505 4 0 2 9 25 20 50 l19 46 460 0 c274 0 470
-4 485 -10z m124 -1127 l2 -843 -630 0 -630 0 0 839 0 840 28 4 c15 2 297 4
627 3 l600 -1 3 -842z m2 -1193 l0 -150 -630 0 -630 0 0 150 0 150 630 0 630
0 0 -150z"/>
</g>
</svg>
