;Holesize 1 =   28.0 PLATED MILS
;Holesize 2 =   45.0 PLATED MILS
;Holesize 3 =  100.0 PLATED MILS
;Holesize 4 =   14.0 PLATED MILS
M48
INCH,00.0000
T01C0.028
T02C0.045
T03C0.100
T04C0.014
%
G05
G90
T01
X002000Y-005000
X005000Y-005000
X002000Y-007000
X005000Y-007000
X002000Y-009000
X005000Y-009000
X002000Y-015000
X005000Y-015000
X005000Y-006250
X002000Y-007500
X007000Y-005000
X010000Y-005000
X007000Y-007000
X010000Y-007000
X007000Y-009000
X010000Y-009000
X007000Y-015000
X010000Y-015000
X012000Y-005000
X015000Y-005000
X012000Y-007000
X015000Y-007000
X012000Y-009000
X015000Y-009000
X012000Y-015000
X015000Y-015000
X017000Y-005000
X020000Y-005000
X017000Y-007000
X020000Y-007000
X017000Y-009000
X020000Y-009000
X017000Y-015000
X020000Y-015000
X022000Y-005000
X025000Y-005000
X022000Y-007000
X025000Y-007000
X022000Y-009000
X025000Y-009000
X022000Y-015000
X025000Y-015000
X027000Y-005000
X030000Y-005000
X027000Y-007000
X030000Y-007000
X027000Y-009000
X030000Y-009000
X027000Y-015000
X030000Y-015000
X007000Y-022000
X008000Y-022000
X009000Y-022000
X010000Y-022000
X011000Y-022000
X012000Y-022000
X013000Y-022000
X014000Y-022000
X015000Y-022000
X015000Y-019000
X014000Y-019000
X013000Y-019000
X012000Y-019000
X011000Y-019000
X010000Y-019000
X009000Y-019000
X008000Y-019000
X007000Y-019000
X022000Y-020000
X022000Y-021000
X021000Y-020000
X021000Y-021000
X020000Y-020000
X020000Y-021000
X019000Y-020000
X019000Y-021000
X002000Y-024000
X002000Y-021000
X008000Y-024000
X011000Y-024000
X003500Y-023500
X006500Y-023500
X009000Y-023250
X012000Y-023250
X012500Y-024000
X015500Y-024000
X018000Y-024750
X018000Y-020750
X016250Y-022000
X002000Y022000
X005000Y022000
X002000Y020000
X005000Y020000
X002000Y018000
X005000Y018000
X002000Y012000
X005000Y012000
X005000Y020750
X002000Y019500
X007000Y022000
X010000Y022000
X007000Y020000
X010000Y020000
X007000Y018000
X010000Y018000
X007000Y012000
X010000Y012000
X012000Y022000
X015000Y022000
X012000Y020000
X015000Y020000
X012000Y018000
X015000Y018000
X012000Y012000
X015000Y012000
X017000Y022000
X020000Y022000
X017000Y020000
X020000Y020000
X017000Y018000
X020000Y018000
X017000Y012000
X020000Y012000
X022000Y022000
X025000Y022000
X022000Y020000
X025000Y020000
X022000Y018000
X025000Y018000
X022000Y012000
X025000Y012000
X027000Y022000
X030000Y022000
X027000Y020000
X030000Y020000
X027000Y018000
X030000Y018000
X027000Y012000
X030000Y012000
X007000Y005000
X008000Y005000
X009000Y005000
X010000Y005000
X011000Y005000
X012000Y005000
X013000Y005000
X014000Y005000
X015000Y005000
X015000Y008000
X014000Y008000
X013000Y008000
X012000Y008000
X011000Y008000
X010000Y008000
X009000Y008000
X008000Y008000
X007000Y008000
X022000Y007000
X022000Y006000
X021000Y007000
X021000Y006000
X020000Y007000
X020000Y006000
X019000Y007000
X019000Y006000
X002000Y003000
X002000Y006000
X008000Y003000
X011000Y003000
X003500Y003500
X006500Y003500
X009000Y003750
X012000Y003750
X012500Y003000
X015500Y003000
X018000Y002250
X018000Y006250
X016250Y005000
X035500Y-005000
X038500Y-005000
X035500Y-007000
X038500Y-007000
X035500Y-009000
X038500Y-009000
X035500Y-015000
X038500Y-015000
X038500Y-006250
X035500Y-007500
X040500Y-005000
X043500Y-005000
X040500Y-007000
X043500Y-007000
X040500Y-009000
X043500Y-009000
X040500Y-015000
X043500Y-015000
X045500Y-005000
X048500Y-005000
X045500Y-007000
X048500Y-007000
X045500Y-009000
X048500Y-009000
X045500Y-015000
X048500Y-015000
X050500Y-005000
X053500Y-005000
X050500Y-007000
X053500Y-007000
X050500Y-009000
X053500Y-009000
X050500Y-015000
X053500Y-015000
X055500Y-005000
X058500Y-005000
X055500Y-007000
X058500Y-007000
X055500Y-009000
X058500Y-009000
X055500Y-015000
X058500Y-015000
X060500Y-005000
X063500Y-005000
X060500Y-007000
X063500Y-007000
X060500Y-009000
X063500Y-009000
X060500Y-015000
X063500Y-015000
X040500Y-022000
X041500Y-022000
X042500Y-022000
X043500Y-022000
X044500Y-022000
X045500Y-022000
X046500Y-022000
X047500Y-022000
X048500Y-022000
X048500Y-019000
X047500Y-019000
X046500Y-019000
X045500Y-019000
X044500Y-019000
X043500Y-019000
X042500Y-019000
X041500Y-019000
X040500Y-019000
X055500Y-020000
X055500Y-021000
X054500Y-020000
X054500Y-021000
X053500Y-020000
X053500Y-021000
X052500Y-020000
X052500Y-021000
X035500Y-024000
X035500Y-021000
X041500Y-024000
X044500Y-024000
X037000Y-023500
X040000Y-023500
X042500Y-023250
X045500Y-023250
X046000Y-024000
X049000Y-024000
X051500Y-024750
X051500Y-020750
X049750Y-022000
X035500Y022000
X038500Y022000
X035500Y020000
X038500Y020000
X035500Y018000
X038500Y018000
X035500Y012000
X038500Y012000
X038500Y020750
X035500Y019500
X040500Y022000
X043500Y022000
X040500Y020000
X043500Y020000
X040500Y018000
X043500Y018000
X040500Y012000
X043500Y012000
X045500Y022000
X048500Y022000
X045500Y020000
X048500Y020000
X045500Y018000
X048500Y018000
X045500Y012000
X048500Y012000
X050500Y022000
X053500Y022000
X050500Y020000
X053500Y020000
X050500Y018000
X053500Y018000
X050500Y012000
X053500Y012000
X055500Y022000
X058500Y022000
X055500Y020000
X058500Y020000
X055500Y018000
X058500Y018000
X055500Y012000
X058500Y012000
X060500Y022000
X063500Y022000
X060500Y020000
X063500Y020000
X060500Y018000
X063500Y018000
X060500Y012000
X063500Y012000
X040500Y005000
X041500Y005000
X042500Y005000
X043500Y005000
X044500Y005000
X045500Y005000
X046500Y005000
X047500Y005000
X048500Y005000
X048500Y008000
X047500Y008000
X046500Y008000
X045500Y008000
X044500Y008000
X043500Y008000
X042500Y008000
X041500Y008000
X040500Y008000
X055500Y007000
X055500Y006000
X054500Y007000
X054500Y006000
X053500Y007000
X053500Y006000
X052500Y007000
X052500Y006000
X035500Y003000
X035500Y006000
X041500Y003000
X044500Y003000
X037000Y003500
X040000Y003500
X042500Y003750
X045500Y003750
X046000Y003000
X049000Y003000
X051500Y002250
X051500Y006250
X049750Y005000
T02
X008000Y-002000
X010000Y-002000
X012000Y-002000
X020000Y-002000
X022000Y-002000
X024000Y-002000
X032000Y-025000
X030000Y-025000
X028000Y-025000
X022000Y-025000
X024000Y-025000
X026000Y-025000
X008000Y025000
X010000Y025000
X012000Y025000
X020000Y025000
X022000Y025000
X024000Y025000
X032000Y002000
X030000Y002000
X028000Y002000
X022000Y002000
X024000Y002000
X026000Y002000
X041500Y-002000
X043500Y-002000
X045500Y-002000
X053500Y-002000
X055500Y-002000
X057500Y-002000
X065500Y-025000
X063500Y-025000
X061500Y-025000
X055500Y-025000
X057500Y-025000
X059500Y-025000
X041500Y025000
X043500Y025000
X045500Y025000
X053500Y025000
X055500Y025000
X057500Y025000
X065500Y002000
X063500Y002000
X061500Y002000
X055500Y002000
X057500Y002000
X059500Y002000
T03
X002500Y-018500
X016000Y-002000
X025000Y-021000
X002500Y008500
X016000Y025000
X025000Y006000
X036000Y-018500
X049500Y-002000
X058500Y-021000
X036000Y008500
X049500Y025000
X058500Y006000
T04
X002000Y-025000
X002000Y-026000
X005000Y-025000
X005000Y-026000
X008000Y-025000
X008000Y-026000
X011000Y-025000
X011000Y-026000
X014000Y-025000
X014000Y-026000
X017000Y-025000
X017000Y-026000
X020250Y-025000
X002000Y002000
X002000Y001000
X005000Y002000
X005000Y001000
X008000Y002000
X008000Y001000
X011000Y002000
X011000Y001000
X014000Y002000
X014000Y001000
X017000Y002000
X017000Y001000
X020250Y002000
X035500Y-025000
X035500Y-026000
X038500Y-025000
X038500Y-026000
X041500Y-025000
X041500Y-026000
X044500Y-025000
X044500Y-026000
X047500Y-025000
X047500Y-026000
X050500Y-025000
X050500Y-026000
X053750Y-025000
X035500Y002000
X035500Y001000
X038500Y002000
X038500Y001000
X041500Y002000
X041500Y001000
X044500Y002000
X044500Y001000
X047500Y002000
X047500Y001000
X050500Y002000
X050500Y001000
X053750Y002000
M30
