;Holesize 1 =   28.0 PLATED MILS
;Holesize 2 =  100.0 PLATED MILS
;Holesize 3 =   14.0 PLATED MILS
;Holesize 4 =   45.0 PLATED MILS
M48
INCH,00.0000
T01C0.028
T02C0.100
T03C0.014
T04C0.045
%
G05
G90
T01
X060000Y-005500
X059000Y-005500
X060000Y-004500
X059000Y-004500
X060000Y-003500
X059000Y-003500
X060000Y-002500
X059000Y-002500
X005000Y-014000
X002000Y-014000
X000000Y-011000
X000000Y-010000
X000000Y-009000
X006000Y-011000
X006000Y-010000
X006000Y-001000
X006000Y000000
X000000Y000000
X000000Y-001000
X010000Y-011000
X010000Y-010000
X010000Y-009000
X016000Y-011000
X016000Y-010000
X016000Y-001000
X016000Y000000
X010000Y000000
X010000Y-001000
X020000Y-011000
X020000Y-010000
X020000Y-009000
X026000Y-011000
X026000Y-010000
X026000Y-001000
X026000Y000000
X020000Y000000
X020000Y-001000
X030000Y-011000
X030000Y-010000
X030000Y-009000
X036000Y-011000
X036000Y-010000
X036000Y-001000
X036000Y000000
X030000Y000000
X030000Y-001000
X040000Y-011000
X040000Y-010000
X040000Y-009000
X046000Y-011000
X046000Y-010000
X046000Y-001000
X046000Y000000
X040000Y000000
X040000Y-001000
X050000Y-011000
X050000Y-010000
X050000Y-009000
X056000Y-011000
X056000Y-010000
X056000Y-001000
X056000Y000000
X050000Y000000
X050000Y-001000
X015000Y-014000
X012000Y-014000
X025000Y-014000
X022000Y-014000
X035000Y-014000
X032000Y-014000
X045000Y-014000
X042000Y-014000
X055000Y-014000
X052000Y-014000
X022000Y-008000
X032000Y-008000
X012000Y-008000
X042000Y-008000
X052000Y-008250
T02
X000000Y003500
X029000Y-014000
X059500Y003500
T03
X006000Y-013000
X006000Y-014000
X016000Y-013000
X016000Y-014000
X026000Y-013000
X026000Y-014000
X036000Y-013000
X036000Y-014000
X046000Y-013000
X046000Y-014000
X056000Y-013000
X056000Y-014000
T04
X059500Y-012500
X059500Y-010500
X059500Y-008500
X007500Y003500
X009500Y003500
X011500Y003500
X014500Y003500
X016500Y003500
X018500Y003500
X037500Y003500
X039500Y003500
X041500Y003500
X044500Y003500
X046500Y003500
X048500Y003500
M30
