M48
INCH,TZ
T10C0.028
T11C0.020
%
T10
X008500Y-02450
X009500Y-02450
X010500Y-02450
X011500Y-02450
X012500Y-02450
X008700Y-03350
X012700Y-03350
X008500Y009200
X009500Y009200
X010500Y009200
X011500Y009200
X012500Y009200
X008700Y008300
X012700Y008300
X008500Y020850
X009500Y020850
X010500Y020850
X011500Y020850
X012500Y020850
X008700Y019950
X012700Y019950
T11
X007800Y-01350
X008700Y-01350
X009600Y-01350
X010500Y-01350
X011400Y-01350
X012300Y-01350
X013200Y-01350
X014100Y-01350
X007800Y010300
X008700Y010300
X009600Y010300
X010500Y010300
X011400Y010300
X012300Y010300
X013200Y010300
X014100Y010300
X007800Y021950
X008700Y021950
X009600Y021950
X010500Y021950
X011400Y021950
X012300Y021950
X013200Y021950
X014100Y021950
M30

