G04 FreePCB version 1.359*
G04 N:\work\HomeAutomation\pcb\switch\switch3\top_silk.grb*
G04 top silk layer *
G04 Scale: 100 percent, Rotated: No, Reflected: No *
%FSLAX24Y24*%
%MOIN*%
%LN top silk *%
G04 Rounded Rectangle Macro, params: W/2, H/2, R *
%AMRNDREC*
21,1,$1+$1,$2+$2-$3-$3,0,0,0*
21,1,$1+$1-$3-$3,$2+$2,0,0,0*
1,1,$3+$3,$1-$3,$2-$3*
1,1,$3+$3,$3-$1,$2-$3*
1,1,$3+$3,$1-$3,$3-$2*
1,1,$3+$3,$3-$1,$3-$2*%
G04 Rectangular Thermal Macro, params: W/2, H/2, T/2 *
%AMRECTHERM*
$4=$3/2*
21,1,$1-$3,$2-$3,0-$1/2-$4,0-$2/2-$4,0*
21,1,$1-$3,$2-$3,0-$1/2-$4,$2/2+$4,0*
21,1,$1-$3,$2-$3,$1/2+$4,0-$2/2-$4,0*
21,1,$1-$3,$2-$3,$1/2+$4,$2/2+$4,0*%
%ADD10C,0.005000*%
%ADD11C,0.010000*%
%ADD12C,0.007000*%
G90*
G70D02*

G04 Step and Repeat for panelization *
%SRX1Y3I2.170000J1.165000*%

G04 ----------------------- Draw board outline (positive)*
%LPD*%
G54D10*
G01X0Y-6100D02*
G01X0Y-11600D01*
G04 end of side 1*
G01X21700Y-11600D01*
G04 end of side 2*
G01X21700Y-6100D01*
G04 end of side 3*
G01X0Y-6100D01*
G01X0Y0D02*
G01X0Y-6050D01*
G04 end of side 1*
G01X21700Y-6050D01*
G04 end of side 2*
G01X21700Y0D01*
G04 end of side 3*
G01X0Y0D01*

G04 -------------- Draw Parts, Pads, Traces, Vias and Text (positive)*
%LPD*%
G04 Draw part 1*
G04 draw part outline for part 1*
G54D11*
G01X1500Y-1800D02*
G01X1500Y-4200D01*
G01X1500Y-4200D02*
G01X3900Y-4200D01*
G01X3900Y-4200D02*
G01X3900Y-1800D01*
G01X3900Y-1800D02*
G01X1500Y-1800D01*
G04 draw reference designator for part 1*
G54D12*
G01X90Y-254D02*
G01X113Y-300D01*
G01X22Y-186D02*
G01X90Y-254D01*
G01X22Y-186D02*
G01X500Y-186D01*
G04 Draw part 2*
G04 draw part outline for part 2*
G54D11*
G01X17900Y-1800D02*
G01X17900Y-4200D01*
G01X17900Y-4200D02*
G01X20300Y-4200D01*
G01X20300Y-4200D02*
G01X20300Y-1800D01*
G01X20300Y-1800D02*
G01X17900Y-1800D01*
G04 draw reference designator for part 2*
G54D10*
G01X18665Y-1323D02*
G01X18665Y-1346D01*
G01X18687Y-1278D02*
G01X18665Y-1323D01*
G01X18710Y-1255D02*
G01X18687Y-1278D01*
G01X18756Y-1232D02*
G01X18710Y-1255D01*
G01X18847Y-1232D02*
G01X18756Y-1232D01*
G01X18847Y-1232D02*
G01X18892Y-1255D01*
G01X18892Y-1255D02*
G01X18915Y-1278D01*
G01X18915Y-1278D02*
G01X18937Y-1323D01*
G01X18937Y-1323D02*
G01X18937Y-1369D01*
G01X18937Y-1369D02*
G01X18915Y-1414D01*
G01X18915Y-1414D02*
G01X18869Y-1482D01*
G01X18869Y-1482D02*
G01X18642Y-1710D01*
G01X18960Y-1710D02*
G01X18642Y-1710D01*
G04 Draw part 4x10K*
G04 draw part outline for part 4x10K*
G54D12*
G01X8000Y-1950D02*
G01X13000Y-1950D01*
G01X13000Y-1950D02*
G01X13000Y-2950D01*
G01X13000Y-2950D02*
G01X8000Y-2950D01*
G01X8000Y-2950D02*
G01X8000Y-1950D01*
G04 draw reference designator for part 4x10K*
G01X10727Y-972D02*
G01X10500Y-1290D01*
G01X10840Y-1290D02*
G01X10500Y-1290D01*
G01X10727Y-972D02*
G01X10727Y-1450D01*
G01X11022Y-1131D02*
G01X11272Y-1450D01*
G01X11272Y-1131D02*
G01X11022Y-1450D01*
G01X11500Y-1040D02*
G01X11454Y-1063D01*
G01X11568Y-972D02*
G01X11500Y-1040D01*
G01X11568Y-972D02*
G01X11568Y-1450D01*
G01X11886Y-972D02*
G01X11818Y-995D01*
G01X11818Y-995D02*
G01X11772Y-1063D01*
G01X11772Y-1063D02*
G01X11750Y-1177D01*
G01X11750Y-1177D02*
G01X11750Y-1245D01*
G01X11750Y-1245D02*
G01X11772Y-1359D01*
G01X11772Y-1359D02*
G01X11818Y-1427D01*
G01X11818Y-1427D02*
G01X11886Y-1450D01*
G01X11931Y-1450D02*
G01X11886Y-1450D01*
G01X12000Y-1427D02*
G01X11931Y-1450D01*
G01X12045Y-1359D02*
G01X12000Y-1427D01*
G01X12068Y-1245D02*
G01X12045Y-1359D01*
G01X12068Y-1177D02*
G01X12068Y-1245D01*
G01X12045Y-1063D02*
G01X12068Y-1177D01*
G01X12000Y-995D02*
G01X12045Y-1063D01*
G01X11931Y-972D02*
G01X12000Y-995D01*
G01X11886Y-972D02*
G01X11931Y-972D01*
G01X12250Y-972D02*
G01X12250Y-1450D01*
G01X12568Y-972D02*
G01X12250Y-1290D01*
G01X12363Y-1177D02*
G01X12568Y-1450D01*
G04 Draw part ConnLed*
G04 draw part outline for part ConnLed*
G01X13500Y-3400D02*
G01X16500Y-3400D01*
G01X16500Y-3400D02*
G01X16500Y-4400D01*
G01X16500Y-4400D02*
G01X13500Y-4400D01*
G01X13500Y-4400D02*
G01X13500Y-3400D01*
G04 draw reference designator for part ConnLed*
G01X15818Y-2490D02*
G01X15840Y-2536D01*
G01X15772Y-2445D02*
G01X15818Y-2490D01*
G01X15727Y-2422D02*
G01X15772Y-2445D01*
G01X15636Y-2422D02*
G01X15727Y-2422D01*
G01X15636Y-2422D02*
G01X15590Y-2445D01*
G01X15590Y-2445D02*
G01X15545Y-2490D01*
G01X15545Y-2490D02*
G01X15522Y-2536D01*
G01X15522Y-2536D02*
G01X15500Y-2604D01*
G01X15500Y-2604D02*
G01X15500Y-2718D01*
G01X15500Y-2718D02*
G01X15522Y-2786D01*
G01X15522Y-2786D02*
G01X15545Y-2831D01*
G01X15545Y-2831D02*
G01X15590Y-2877D01*
G01X15590Y-2877D02*
G01X15636Y-2900D01*
G01X15727Y-2900D02*
G01X15636Y-2900D01*
G01X15772Y-2877D02*
G01X15727Y-2900D01*
G01X15818Y-2831D02*
G01X15772Y-2877D01*
G01X15840Y-2786D02*
G01X15818Y-2831D01*
G01X16136Y-2581D02*
G01X16090Y-2604D01*
G01X16090Y-2604D02*
G01X16045Y-2650D01*
G01X16045Y-2650D02*
G01X16022Y-2718D01*
G01X16022Y-2718D02*
G01X16022Y-2763D01*
G01X16022Y-2763D02*
G01X16045Y-2831D01*
G01X16045Y-2831D02*
G01X16090Y-2877D01*
G01X16090Y-2877D02*
G01X16136Y-2900D01*
G01X16204Y-2900D02*
G01X16136Y-2900D01*
G01X16250Y-2877D02*
G01X16204Y-2900D01*
G01X16295Y-2831D02*
G01X16250Y-2877D01*
G01X16318Y-2763D02*
G01X16295Y-2831D01*
G01X16318Y-2718D02*
G01X16318Y-2763D01*
G01X16295Y-2650D02*
G01X16318Y-2718D01*
G01X16250Y-2604D02*
G01X16295Y-2650D01*
G01X16204Y-2581D02*
G01X16250Y-2604D01*
G01X16136Y-2581D02*
G01X16204Y-2581D01*
G01X16500Y-2581D02*
G01X16500Y-2900D01*
G01X16568Y-2604D02*
G01X16500Y-2672D01*
G01X16613Y-2581D02*
G01X16568Y-2604D01*
G01X16681Y-2581D02*
G01X16613Y-2581D01*
G01X16681Y-2581D02*
G01X16727Y-2604D01*
G01X16727Y-2604D02*
G01X16750Y-2672D01*
G01X16750Y-2672D02*
G01X16750Y-2900D01*
G01X16931Y-2581D02*
G01X16931Y-2900D01*
G01X17000Y-2604D02*
G01X16931Y-2672D01*
G01X17045Y-2581D02*
G01X17000Y-2604D01*
G01X17113Y-2581D02*
G01X17045Y-2581D01*
G01X17113Y-2581D02*
G01X17159Y-2604D01*
G01X17159Y-2604D02*
G01X17181Y-2672D01*
G01X17181Y-2672D02*
G01X17181Y-2900D01*
G01X17363Y-2422D02*
G01X17363Y-2900D01*
G01X17636Y-2900D02*
G01X17363Y-2900D01*
G01X18090Y-2718D02*
G01X17818Y-2718D01*
G01X18090Y-2672D02*
G01X18090Y-2718D01*
G01X18068Y-2627D02*
G01X18090Y-2672D01*
G01X18045Y-2604D02*
G01X18068Y-2627D01*
G01X18000Y-2581D02*
G01X18045Y-2604D01*
G01X17931Y-2581D02*
G01X18000Y-2581D01*
G01X17931Y-2581D02*
G01X17886Y-2604D01*
G01X17886Y-2604D02*
G01X17840Y-2650D01*
G01X17840Y-2650D02*
G01X17818Y-2718D01*
G01X17818Y-2718D02*
G01X17818Y-2763D01*
G01X17818Y-2763D02*
G01X17840Y-2831D01*
G01X17840Y-2831D02*
G01X17886Y-2877D01*
G01X17886Y-2877D02*
G01X17931Y-2900D01*
G01X18000Y-2900D02*
G01X17931Y-2900D01*
G01X18045Y-2877D02*
G01X18000Y-2900D01*
G01X18090Y-2831D02*
G01X18045Y-2877D01*
G01X18545Y-2422D02*
G01X18545Y-2900D01*
G01X18500Y-2604D02*
G01X18545Y-2650D01*
G01X18454Y-2581D02*
G01X18500Y-2604D01*
G01X18386Y-2581D02*
G01X18454Y-2581D01*
G01X18386Y-2581D02*
G01X18340Y-2604D01*
G01X18340Y-2604D02*
G01X18295Y-2650D01*
G01X18295Y-2650D02*
G01X18272Y-2718D01*
G01X18272Y-2718D02*
G01X18272Y-2763D01*
G01X18272Y-2763D02*
G01X18295Y-2831D01*
G01X18295Y-2831D02*
G01X18340Y-2877D01*
G01X18340Y-2877D02*
G01X18386Y-2900D01*
G01X18454Y-2900D02*
G01X18386Y-2900D01*
G01X18500Y-2877D02*
G01X18454Y-2900D01*
G01X18545Y-2831D02*
G01X18500Y-2877D01*
G04 Draw part R150*
G04 draw part outline for part R150*
G01X9600Y-3050D02*
G01X11700Y-3050D01*
G01X11700Y-3050D02*
G01X11700Y-3650D01*
G01X11700Y-3650D02*
G01X9600Y-3650D01*
G01X9600Y-3650D02*
G01X9600Y-3050D01*
G04 draw reference designator for part R150*
G54D10*
G01X9700Y-3211D02*
G01X9700Y-3450D01*
G01X9802Y-3211D02*
G01X9700Y-3211D01*
G01X9802Y-3211D02*
G01X9836Y-3222D01*
G01X9836Y-3222D02*
G01X9847Y-3234D01*
G01X9847Y-3234D02*
G01X9859Y-3256D01*
G01X9859Y-3256D02*
G01X9859Y-3279D01*
G01X9859Y-3279D02*
G01X9847Y-3302D01*
G01X9847Y-3302D02*
G01X9836Y-3313D01*
G01X9836Y-3313D02*
G01X9802Y-3325D01*
G01X9700Y-3325D02*
G01X9802Y-3325D01*
G01X9779Y-3325D02*
G01X9859Y-3450D01*
G01X9972Y-3245D02*
G01X9950Y-3256D01*
G01X10006Y-3211D02*
G01X9972Y-3245D01*
G01X10006Y-3211D02*
G01X10006Y-3450D01*
G01X10120Y-3211D02*
G01X10234Y-3211D01*
G01X10120Y-3211D02*
G01X10109Y-3313D01*
G01X10120Y-3302D02*
G01X10109Y-3313D01*
G01X10154Y-3290D02*
G01X10120Y-3302D01*
G01X10188Y-3290D02*
G01X10154Y-3290D01*
G01X10188Y-3290D02*
G01X10222Y-3302D01*
G01X10222Y-3302D02*
G01X10245Y-3325D01*
G01X10245Y-3325D02*
G01X10256Y-3359D01*
G01X10256Y-3359D02*
G01X10256Y-3381D01*
G01X10256Y-3381D02*
G01X10245Y-3415D01*
G01X10245Y-3415D02*
G01X10222Y-3438D01*
G01X10222Y-3438D02*
G01X10188Y-3450D01*
G01X10154Y-3450D02*
G01X10188Y-3450D01*
G01X10120Y-3438D02*
G01X10154Y-3450D01*
G01X10109Y-3427D02*
G01X10120Y-3438D01*
G01X10097Y-3404D02*
G01X10109Y-3427D01*
G01X10415Y-3211D02*
G01X10381Y-3222D01*
G01X10381Y-3222D02*
G01X10359Y-3256D01*
G01X10359Y-3256D02*
G01X10347Y-3313D01*
G01X10347Y-3313D02*
G01X10347Y-3347D01*
G01X10347Y-3347D02*
G01X10359Y-3404D01*
G01X10359Y-3404D02*
G01X10381Y-3438D01*
G01X10381Y-3438D02*
G01X10415Y-3450D01*
G01X10438Y-3450D02*
G01X10415Y-3450D01*
G01X10472Y-3438D02*
G01X10438Y-3450D01*
G01X10495Y-3404D02*
G01X10472Y-3438D01*
G01X10506Y-3347D02*
G01X10495Y-3404D01*
G01X10506Y-3313D02*
G01X10506Y-3347D01*
G01X10495Y-3256D02*
G01X10506Y-3313D01*
G01X10472Y-3222D02*
G01X10495Y-3256D01*
G01X10438Y-3211D02*
G01X10472Y-3222D01*
G01X10415Y-3211D02*
G01X10438Y-3211D01*
G04 Draw part C*
G04 draw part outline for part C*
G54D12*
G01X7300Y-850D02*
G01X14500Y-850D01*
G01X14500Y-850D02*
G01X14500Y-1850D01*
G01X14500Y-1850D02*
G01X7300Y-1850D01*
G01X7300Y-1850D02*
G01X7300Y-850D01*
G04 draw reference designator for part C*
G01X11618Y59D02*
G01X11640Y13D01*
G01X11572Y104D02*
G01X11618Y59D01*
G01X11527Y127D02*
G01X11572Y104D01*
G01X11436Y127D02*
G01X11527Y127D01*
G01X11436Y127D02*
G01X11390Y104D01*
G01X11390Y104D02*
G01X11345Y59D01*
G01X11345Y59D02*
G01X11322Y13D01*
G01X11322Y13D02*
G01X11300Y-54D01*
G01X11300Y-54D02*
G01X11300Y-168D01*
G01X11300Y-168D02*
G01X11322Y-236D01*
G01X11322Y-236D02*
G01X11345Y-281D01*
G01X11345Y-281D02*
G01X11390Y-327D01*
G01X11390Y-327D02*
G01X11436Y-350D01*
G01X11527Y-350D02*
G01X11436Y-350D01*
G01X11572Y-327D02*
G01X11527Y-350D01*
G01X11618Y-281D02*
G01X11572Y-327D01*
G01X11640Y-236D02*
G01X11618Y-281D01*
G04 Draw part conn*
G04 draw part outline for part conn*
G01X4200Y-3850D02*
G01X7200Y-3850D01*
G01X7200Y-3850D02*
G01X7200Y-4850D01*
G01X7200Y-4850D02*
G01X4200Y-4850D01*
G01X4200Y-4850D02*
G01X4200Y-3850D01*
G04 draw reference designator for part conn*
G01X6427Y-3054D02*
G01X6472Y-3100D01*
G01X6381Y-3031D02*
G01X6427Y-3054D01*
G01X6313Y-3031D02*
G01X6381Y-3031D01*
G01X6313Y-3031D02*
G01X6268Y-3054D01*
G01X6268Y-3054D02*
G01X6222Y-3100D01*
G01X6222Y-3100D02*
G01X6200Y-3168D01*
G01X6200Y-3168D02*
G01X6200Y-3213D01*
G01X6200Y-3213D02*
G01X6222Y-3281D01*
G01X6222Y-3281D02*
G01X6268Y-3327D01*
G01X6268Y-3327D02*
G01X6313Y-3350D01*
G01X6381Y-3350D02*
G01X6313Y-3350D01*
G01X6427Y-3327D02*
G01X6381Y-3350D01*
G01X6472Y-3281D02*
G01X6427Y-3327D01*
G01X6768Y-3031D02*
G01X6722Y-3054D01*
G01X6722Y-3054D02*
G01X6677Y-3100D01*
G01X6677Y-3100D02*
G01X6654Y-3168D01*
G01X6654Y-3168D02*
G01X6654Y-3213D01*
G01X6654Y-3213D02*
G01X6677Y-3281D01*
G01X6677Y-3281D02*
G01X6722Y-3327D01*
G01X6722Y-3327D02*
G01X6768Y-3350D01*
G01X6836Y-3350D02*
G01X6768Y-3350D01*
G01X6881Y-3327D02*
G01X6836Y-3350D01*
G01X6927Y-3281D02*
G01X6881Y-3327D01*
G01X6950Y-3213D02*
G01X6927Y-3281D01*
G01X6950Y-3168D02*
G01X6950Y-3213D01*
G01X6927Y-3100D02*
G01X6950Y-3168D01*
G01X6881Y-3054D02*
G01X6927Y-3100D01*
G01X6836Y-3031D02*
G01X6881Y-3054D01*
G01X6768Y-3031D02*
G01X6836Y-3031D01*
G01X7131Y-3031D02*
G01X7131Y-3350D01*
G01X7200Y-3054D02*
G01X7131Y-3122D01*
G01X7245Y-3031D02*
G01X7200Y-3054D01*
G01X7313Y-3031D02*
G01X7245Y-3031D01*
G01X7313Y-3031D02*
G01X7359Y-3054D01*
G01X7359Y-3054D02*
G01X7381Y-3122D01*
G01X7381Y-3122D02*
G01X7381Y-3350D01*
G01X7563Y-3031D02*
G01X7563Y-3350D01*
G01X7631Y-3054D02*
G01X7563Y-3122D01*
G01X7677Y-3031D02*
G01X7631Y-3054D01*
G01X7745Y-3031D02*
G01X7677Y-3031D01*
G01X7745Y-3031D02*
G01X7790Y-3054D01*
G01X7790Y-3054D02*
G01X7813Y-3122D01*
G01X7813Y-3122D02*
G01X7813Y-3350D01*
G04 Draw part 3*
G04 draw part outline for part 3*
G54D11*
G01X1500Y-7400D02*
G01X1500Y-9800D01*
G01X1500Y-9800D02*
G01X3900Y-9800D01*
G01X3900Y-9800D02*
G01X3900Y-7400D01*
G01X3900Y-7400D02*
G01X1500Y-7400D01*
G04 draw reference designator for part 3*
G54D10*
G01X2537Y-6832D02*
G01X2287Y-6832D01*
G01X2537Y-6832D02*
G01X2401Y-7014D01*
G01X2469Y-7014D02*
G01X2401Y-7014D01*
G01X2469Y-7014D02*
G01X2515Y-7037D01*
G01X2515Y-7037D02*
G01X2537Y-7060D01*
G01X2537Y-7060D02*
G01X2560Y-7128D01*
G01X2560Y-7128D02*
G01X2560Y-7173D01*
G01X2560Y-7173D02*
G01X2537Y-7241D01*
G01X2537Y-7241D02*
G01X2492Y-7287D01*
G01X2492Y-7287D02*
G01X2424Y-7310D01*
G01X2356Y-7310D02*
G01X2424Y-7310D01*
G01X2287Y-7287D02*
G01X2356Y-7310D01*
G01X2265Y-7264D02*
G01X2287Y-7287D01*
G01X2242Y-7219D02*
G01X2265Y-7264D01*
G04 Draw part 4*
G04 draw part outline for part 4*
G54D11*
G01X17900Y-7400D02*
G01X17900Y-9800D01*
G01X17900Y-9800D02*
G01X20300Y-9800D01*
G01X20300Y-9800D02*
G01X20300Y-7400D01*
G01X20300Y-7400D02*
G01X17900Y-7400D01*
G04 draw reference designator for part 4*
G54D10*
G01X18869Y-6832D02*
G01X18642Y-7150D01*
G01X18983Y-7150D02*
G01X18642Y-7150D01*
G01X18869Y-6832D02*
G01X18869Y-7310D01*
G04 Draw part Conn*
G04 draw part outline for part Conn*
G54D12*
G01X5700Y-8200D02*
G01X8700Y-8200D01*
G01X8700Y-8200D02*
G01X8700Y-9200D01*
G01X8700Y-9200D02*
G01X5700Y-9200D01*
G01X5700Y-9200D02*
G01X5700Y-8200D01*
G04 draw reference designator for part Conn*
G01X8018Y-7290D02*
G01X8040Y-7336D01*
G01X7972Y-7245D02*
G01X8018Y-7290D01*
G01X7927Y-7222D02*
G01X7972Y-7245D01*
G01X7836Y-7222D02*
G01X7927Y-7222D01*
G01X7836Y-7222D02*
G01X7790Y-7245D01*
G01X7790Y-7245D02*
G01X7745Y-7290D01*
G01X7745Y-7290D02*
G01X7722Y-7336D01*
G01X7722Y-7336D02*
G01X7700Y-7404D01*
G01X7700Y-7404D02*
G01X7700Y-7518D01*
G01X7700Y-7518D02*
G01X7722Y-7586D01*
G01X7722Y-7586D02*
G01X7745Y-7631D01*
G01X7745Y-7631D02*
G01X7790Y-7677D01*
G01X7790Y-7677D02*
G01X7836Y-7700D01*
G01X7927Y-7700D02*
G01X7836Y-7700D01*
G01X7972Y-7677D02*
G01X7927Y-7700D01*
G01X8018Y-7631D02*
G01X7972Y-7677D01*
G01X8040Y-7586D02*
G01X8018Y-7631D01*
G01X8336Y-7381D02*
G01X8290Y-7404D01*
G01X8290Y-7404D02*
G01X8245Y-7450D01*
G01X8245Y-7450D02*
G01X8222Y-7518D01*
G01X8222Y-7518D02*
G01X8222Y-7563D01*
G01X8222Y-7563D02*
G01X8245Y-7631D01*
G01X8245Y-7631D02*
G01X8290Y-7677D01*
G01X8290Y-7677D02*
G01X8336Y-7700D01*
G01X8404Y-7700D02*
G01X8336Y-7700D01*
G01X8450Y-7677D02*
G01X8404Y-7700D01*
G01X8495Y-7631D02*
G01X8450Y-7677D01*
G01X8518Y-7563D02*
G01X8495Y-7631D01*
G01X8518Y-7518D02*
G01X8518Y-7563D01*
G01X8495Y-7450D02*
G01X8518Y-7518D01*
G01X8450Y-7404D02*
G01X8495Y-7450D01*
G01X8404Y-7381D02*
G01X8450Y-7404D01*
G01X8336Y-7381D02*
G01X8404Y-7381D01*
G01X8700Y-7381D02*
G01X8700Y-7700D01*
G01X8768Y-7404D02*
G01X8700Y-7472D01*
G01X8813Y-7381D02*
G01X8768Y-7404D01*
G01X8881Y-7381D02*
G01X8813Y-7381D01*
G01X8881Y-7381D02*
G01X8927Y-7404D01*
G01X8927Y-7404D02*
G01X8950Y-7472D01*
G01X8950Y-7472D02*
G01X8950Y-7700D01*
G01X9131Y-7381D02*
G01X9131Y-7700D01*
G01X9200Y-7404D02*
G01X9131Y-7472D01*
G01X9245Y-7381D02*
G01X9200Y-7404D01*
G01X9313Y-7381D02*
G01X9245Y-7381D01*
G01X9313Y-7381D02*
G01X9359Y-7404D01*
G01X9359Y-7404D02*
G01X9381Y-7472D01*
G01X9381Y-7472D02*
G01X9381Y-7700D01*

G04 Draw traces*

G04 Draw Text*
M00*
M02*
